<?xml version="1.0" encoding="UTF-8" standalone="no"?>
<svg
   xmlns:dc="http://purl.org/dc/elements/1.1/"
   xmlns:cc="http://creativecommons.org/ns#"
   xmlns:rdf="http://www.w3.org/1999/02/22-rdf-syntax-ns#"
   xmlns:svg="http://www.w3.org/2000/svg"
   xmlns="http://www.w3.org/2000/svg"
   xmlns:sodipodi="http://sodipodi.sourceforge.net/DTD/sodipodi-0.dtd"
   xmlns:inkscape="http://www.inkscape.org/namespaces/inkscape"
   width="442"
   height="442"
   viewBox="0 0 442 442"
   version="1.1"
   id="svg32"
   sodipodi:docname="aprenentatgeautonom.svg"
   inkscape:version="0.92.2 5c3e80d, 2017-08-06">
  <metadata
     id="metadata22">
    <rdf:RDF>
      <cc:Work
         rdf:about="">
        <dc:format>image/svg+xml</dc:format>
        <dc:type
           rdf:resource="http://purl.org/dc/dcmitype/StillImage" />
      </cc:Work>
    </rdf:RDF>
  </metadata>
  <defs
     id="defs20" />
  <sodipodi:namedview
     pagecolor="#ffffff"
     bordercolor="#666666"
     borderopacity="1"
     objecttolerance="10"
     gridtolerance="10"
     guidetolerance="10"
     inkscape:pageopacity="0"
     inkscape:pageshadow="2"
     inkscape:window-width="1267"
     inkscape:window-height="814"
     id="namedview18"
     showgrid="false"
     inkscape:zoom="0.53393665"
     inkscape:cx="221"
     inkscape:cy="221"
     inkscape:window-x="0"
     inkscape:window-y="0"
     inkscape:window-maximized="0"
     inkscape:current-layer="g37" />
  <g
     id="newtons-cradle_DL"
     style="fill:none;fill-rule:evenodd;stroke:none;stroke-width:1"
     transform="translate(-180,-117)">
    <g
       id="newtons-cradle"
       transform="translate(180,119.23794)"
       style="fill:#4d4d4d">
      <g
         id="g37">
        <path
           style="fill:#4d4d4d"
           inkscape:connector-curvature="0"
           id="Fill-670"
           d="m 394.00855,36.451352 c 0.36178,6.856569 0.36708,13.72241 0.58442,20.584277 0.20805,6.659191 0.77126,13.30381 0.93294,19.963001 0.16565,7.130778 0.32069,14.266855 0.46514,21.397634 0.14445,7.161246 0.20673,14.311896 0.59502,21.469166 0.3525,6.5254 0.6785,13.04417 0.88523,19.58017 0.21733,6.72145 0.26901,13.4482 0.31672,20.17495 0.0464,6.33464 0.061,12.67326 0.0981,19.00657 0.0159,2.90371 0.0305,5.8114 0.0517,8.71378 0.0159,3.40974 0.0676,6.93473 0.73018,10.2928 0.34588,1.23593 0.9727,2.3129 1.87913,3.22296 1.36628,1.36707 3.24011,2.14334 5.17092,2.14334 3.06916,0 6.42456,-2.20957 7.05006,-5.3663 0.26901,-1.35118 0.27431,-2.40165 0.16565,-3.70514 -0.0517,-0.62128 -0.0875,-1.24653 -0.12325,-1.87311 -0.0994,-1.63996 -0.0994,-3.28654 -0.0888,-4.9318 0.0106,-3.33688 0.0358,-6.67508 0.0517,-10.01197 0.0318,-6.87776 0.0411,-13.7489 0.0265,-20.62666 -0.0212,-7.01686 -0.12457,-14.03239 -0.3737,-21.04395 -0.24251,-6.78503 -0.71428,-13.55285 -0.978,-20.33126 -0.26902,-6.8102 -0.29022,-13.63498 -0.47045,-20.450482 -0.17095,-6.648594 -0.26504,-13.30381 -0.51815,-19.952403 -0.24383,-6.463137 -0.75006,-12.915677 -0.97799,-19.378814 -0.21734,-6.292253 -0.23324,-12.589805 -0.56454,-18.876759 -0.10866,-2.013521 -0.73548,-3.819066 -2.18392,-5.268271 C 405.34032,29.792161 403.42939,29 401.46279,29 c -3.9027,0 -7.66627,3.389868 -7.45424,7.451352" />
        <path
           style="fill:#4d4d4d"
           inkscape:connector-curvature="0"
           id="path17"
           d="m 238.00855,36.451352 c 0.36178,6.856569 0.36708,13.72241 0.58442,20.584277 0.20805,6.659191 0.77126,13.30381 0.93294,19.963001 0.16565,7.130778 0.32069,14.266855 0.46514,21.397634 0.14445,7.161246 0.20673,14.311896 0.59501,21.469166 0.35251,6.5254 0.67851,13.04417 0.88524,19.58017 0.21733,6.72145 0.26901,13.4482 0.31672,20.17495 0.0464,6.33464 0.061,12.67326 0.0981,19.00657 0.0159,2.90371 0.0305,5.8114 0.0517,8.71378 0.0159,3.40974 0.0676,6.93473 0.73018,10.2928 0.34588,1.23593 0.9727,2.3129 1.87913,3.22296 1.36628,1.36707 3.24011,2.14334 5.17092,2.14334 3.06916,0 6.42456,-2.20957 7.05006,-5.3663 0.26901,-1.35118 0.27431,-2.40165 0.16565,-3.70514 -0.0517,-0.62128 -0.0875,-1.24653 -0.12325,-1.87311 -0.0994,-1.63996 -0.0994,-3.28654 -0.0888,-4.9318 0.0106,-3.33688 0.0358,-6.67508 0.0517,-10.01197 0.0318,-6.87776 0.0411,-13.7489 0.0265,-20.62666 -0.0212,-7.01686 -0.12457,-14.03239 -0.3737,-21.04395 -0.24251,-6.78503 -0.71429,-13.55285 -0.978,-20.33126 -0.26902,-6.8102 -0.29022,-13.63498 -0.47045,-20.450482 -0.17095,-6.648594 -0.26504,-13.30381 -0.51815,-19.952403 -0.24383,-6.463137 -0.75006,-12.915677 -0.97799,-19.378814 -0.21734,-6.292253 -0.23324,-12.589805 -0.56454,-18.876759 -0.10866,-2.013521 -0.73548,-3.819066 -2.18392,-5.268271 C 249.34032,29.792161 247.42939,29 245.46279,29 c -3.9027,0 -7.66627,3.389868 -7.45424,7.451352" />
        <path
           style="fill:#4d4d4d"
           inkscape:connector-curvature="0"
           id="Fill-672"
           d="m 317.61466,35.204678 c 0,6.690817 -0.16925,13.3657 -0.34376,20.047222 -0.17451,6.794386 -0.20994,13.588772 -0.25586,20.377846 -0.0262,3.419102 -0.0262,6.836876 0.0669,10.249338 0.0971,3.496115 0.38969,6.992229 0.6298,10.477721 0.45135,6.664265 0.88697,13.340475 1.13233,20.015355 0.25191,6.77314 0.41593,13.5423 0.70327,20.31146 0.29653,7.06924 0.69672,14.13317 0.9985,21.20374 0.29259,6.73198 0.67703,13.46395 0.97881,20.19593 0.30309,6.80501 0.0984,13.64189 1.00506,20.40042 0.52352,3.87454 1.8356,8.31871 6.20221,9.30925 3.11095,0.7064 6.61683,-0.38904 8.20576,-3.37528 0.0354,-0.073 0.0761,-0.14075 0.11284,-0.21378 1.25698,-2.3688 1.28191,-5.17313 -0.021,-7.42376 -0.0603,-0.27752 -0.11546,-0.55768 -0.16532,-0.84051 -0.26242,-2.59984 -0.31359,-5.20898 -0.32671,-7.82476 -0.0157,-3.26773 -0.0774,-6.53546 -0.17976,-9.79788 -0.20993,-6.65364 -0.56813,-13.29798 -0.8253,-19.94764 -0.2716,-7.02808 -0.65604,-14.05085 -0.96307,-21.07893 -0.29784,-6.8621 -0.49727,-13.7242 -0.78987,-20.58631 -0.28603,-6.7426 -0.79906,-13.47591 -1.31208,-20.197263 -0.2611,-3.417774 -0.59962,-6.840859 -0.7269,-10.269255 -0.12858,-3.346072 -0.17975,-6.690817 -0.19025,-10.0422 -0.0157,-6.846171 -0.0459,-13.688357 0.0669,-20.529216 0.10759,-6.62841 0.24011,-13.251509 0.24011,-19.875935 V 35.204678 C 331.85732,31.278354 328.6191,28 324.73927,28 c -3.88507,0 -7.12461,3.278354 -7.12461,7.204678" />
        <path
           style="fill:#4d4d4d;stroke:none;stroke-opacity:1;fill-opacity:1"
           inkscape:connector-curvature="0"
           id="Fill-676"
           d="m 172.46511,30.268217 c -1.96748,0.541718 -3.36243,1.781064 -4.47839,3.441894 -3.89924,5.791103 -7.7575,11.623165 -11.49147,17.527897 -3.67183,5.812243 -7.025,11.788323 -10.09785,17.940131 -3.00542,6.00779 -5.92358,12.051255 -8.89859,18.0749 -3.03187,6.146523 -5.84689,12.397426 -8.72406,18.616621 -2.94856,6.38435 -5.89316,12.77399 -8.72934,19.20987 -2.69073,6.11613 -5.3656,12.23755 -8.20177,18.29158 -2.77272,5.91398 -5.6036,11.79229 -8.28376,17.75383 -1.38966,3.08648 -2.80973,6.16238 -4.101548,9.2951 -0.360968,0.88261 -0.67698,1.78107 -0.934815,2.69935 -0.08727,0.31974 -0.165278,0.64477 -0.238001,0.97112 -0.298823,1.3358 -0.444268,2.90547 -0.02512,4.24259 0.542113,1.73349 1.668651,3.85016 3.465554,4.60857 0.0357,0.0198 0.078,0.0357 0.119,0.0515 1.14637,0.66591 2.38133,1.00152 3.70885,1.0068 1.32619,-0.005 2.56644,-0.34089 3.71281,-1.0068 1.10539,-0.65007 1.98334,-1.53267 2.63917,-2.63725 0.47732,-0.81258 0.83433,-1.82202 0.97712,-2.85129 0.25652,-0.84429 0.56327,-1.67932 0.88986,-2.49851 5.1157,-11.61392 10.78938,-22.96886 15.91565,-34.57749 2.72247,-6.15181 5.39337,-12.32476 8.19252,-18.44618 2.82031,-6.15709 5.67104,-12.30362 8.47019,-18.46599 2.44876,-5.394728 5.12363,-10.669216 7.68479,-16.011089 2.55189,-5.315448 5.14478,-10.616362 7.85138,-15.855176 2.70131,-5.228244 5.87201,-10.223946 9.02288,-15.189258 3.24871,-5.114616 6.64287,-10.161846 10.02513,-15.189258 2.28348,-3.390365 0.6664,-8.288293 -2.69074,-10.250371 C 177.0929,30.348814 175.77332,30 174.44845,30 c -0.6664,0 -1.33545,0.08853 -1.98334,0.268217" />
        <path
           style="fill:#4d4d4d"
           inkscape:connector-curvature="0"
           id="Fill-678"
           d="m 409.04036,209.65995 c 0.5664,0.14672 1.1156,0.31326 1.66744,0.50228 0.85622,0.42165 1.66877,0.88692 2.46146,1.42092 0.57169,0.51814 1.10633,1.0495 1.63039,1.62051 1.0706,1.5465 1.96784,3.17626 2.76054,4.88533 0.52273,1.4619 0.91444,2.93966 1.20294,4.46104 0.12439,1.53591 0.12439,3.05201 -0.003,4.58396 -0.48435,2.48364 -1.28366,4.83245 -2.20605,7.17202 -0.81916,1.71965 -1.71111,3.37981 -2.77775,4.95538 -0.64977,0.73888 -1.33792,1.4196 -2.07768,2.06464 -1.02164,0.67279 -2.06842,1.2623 -3.16814,1.7897 -1.94799,0.71244 -3.92642,1.23587 -5.96838,1.60333 -1.93476,0.17183 -3.8404,0.16125 -5.79104,0.0119 -1.23735,-0.20091 -2.44955,-0.45205 -3.65382,-0.83272 -0.3401,-0.18241 -0.67094,-0.37539 -0.99781,-0.58159 -0.94621,-0.85916 -1.79713,-1.78442 -2.62291,-2.76518 -1.38027,-1.90734 -2.64409,-3.9191 -3.66573,-6.03793 -0.52405,-1.47379 -0.89591,-2.95816 -1.19897,-4.49276 -0.10851,-1.07858 -0.17865,-2.15848 -0.15086,-3.24895 0.0291,-1.17243 0.11116,-2.32767 0.23159,-3.48556 0.36393,-1.74211 0.84298,-3.39831 1.44512,-5.05716 0.43274,-0.8856 0.90121,-1.73022 1.4504,-2.55369 0.78741,-0.91336 1.61716,-1.78045 2.51308,-2.58278 0.58625,-0.38992 1.1897,-0.7402 1.81565,-1.06668 0.49494,-0.16654 0.99385,-0.31591 1.50864,-0.44412 1.01634,-0.25246 1.97843,-0.55383 2.92861,-0.93054 0.78608,0.64768 1.70846,1.13277 2.70099,1.40506 1.9996,0.55251 3.80467,0.15069 5.6243,-0.73227 0.8324,-0.40314 1.66347,-0.81025 2.49984,-1.20283 0.53199,-0.18108 1.06266,-0.33441 1.60789,-0.46394 0.0781,0 0.15483,0 0.23291,0.003 m -1.20294,-14.57403 c -1.24132,0.14936 -2.34236,0.33044 -3.53603,0.62917 -1.15265,0.28947 -2.34236,0.84726 -3.40635,1.32178 -0.37716,0.16919 -0.75167,0.34235 -1.12486,0.51947 -1.94931,-1.94171 -4.87528,-2.77311 -7.7258,-2.09371 -1.51923,0.36084 -3.00801,0.53664 -4.49151,1.04289 -3.06624,1.0376 -5.57269,2.72024 -8.05929,4.77033 -1.903,1.565 -3.55721,3.69175 -4.96263,5.67443 -1.65949,2.329 -2.67849,4.99769 -3.66572,7.6677 -0.58889,1.61126 -0.91974,3.28861 -1.22411,4.96728 -0.38378,2.14261 -0.60081,4.38833 -0.63654,6.56796 -0.0304,1.72361 0.0926,3.40228 0.31496,5.11664 0.29511,2.26555 0.65242,4.47029 1.41203,6.63406 1.89639,5.43255 5.07643,10.24385 8.87052,14.54495 2.99875,3.39171 7.00458,5.62289 11.38756,6.64463 1.5404,0.35688 3.15358,0.47056 4.72574,0.67676 2.01549,0.26303 4.04156,0.27889 6.06896,0.15465 4.6728,-0.28815 9.1643,-1.48702 13.4401,-3.35602 2.28942,-1.00589 4.27447,-2.26687 6.23967,-3.81468 2.19678,-1.7408 3.86158,-3.78032 5.4999,-6.04719 2.01549,-2.79822 3.23563,-6.11855 4.54841,-9.28291 1.61318,-3.90324 2.33177,-8.1475 2.47734,-12.35079 0.0873,-2.5603 -0.39833,-5.21445 -0.93562,-7.70338 -0.49229,-2.29727 -1.46893,-4.45575 -2.42043,-6.58779 -0.82181,-1.8439 -1.86595,-3.58866 -3.02919,-5.2356 -0.84166,-1.183 -1.78257,-2.30256 -2.76054,-3.37717 -1.17779,-1.29139 -2.7129,-2.30256 -4.11434,-3.33091 -1.88712,-1.38788 -4.25992,-2.21928 -6.45141,-2.98327 C 412.73784,195.31591 410.991,195 409.30636,195 c -0.49759,0 -0.98988,0.0278 -1.46894,0.0859" />
        <path
           style="fill:#4d4d4d"
           inkscape:connector-curvature="0"
           id="Fill-680"
           d="m 331.83488,211.61841 c 0.5826,0.12201 1.15061,0.27054 1.71995,0.4562 0.66488,0.34746 1.29925,0.73205 1.92432,1.15112 2.07827,1.79166 3.846,3.83529 5.60178,5.94523 1.45452,1.95213 2.84269,3.91752 3.94155,6.10836 0.66621,1.81686 1.1453,3.66289 1.4877,5.57258 0.14466,1.65241 0.18447,3.28095 0.0637,4.93071 -0.2057,0.99463 -0.47643,1.95478 -0.80954,2.90963 -0.52687,1.02911 -1.12142,2.00119 -1.77967,2.94941 -1.37357,1.60201 -2.87985,3.04754 -4.50027,4.39228 -1.53282,1.08614 -3.10811,2.03833 -4.79489,2.86719 -1.75312,0.63789 -3.52217,1.11796 -5.36289,1.47338 -2.14198,0.20688 -4.27466,0.2281 -6.41929,0.0371 -0.86661,-0.1724 -1.70137,-0.38724 -2.53082,-0.66441 -0.56402,-0.29839 -1.10549,-0.62198 -1.63634,-0.97209 -0.72726,-0.65248 -1.39745,-1.33811 -2.03182,-2.07413 -0.84272,-1.24793 -1.57529,-2.53565 -2.22558,-3.891 -0.79362,-2.15238 -1.34703,-4.33393 -1.72791,-6.59108 -0.25614,-2.69346 -0.28002,-5.39885 -0.0319,-8.08965 0.24286,-1.26385 0.56535,-2.47464 0.99268,-3.67616 0.85467,-1.66567 1.86859,-3.21199 2.95816,-4.7225 0.89049,-1.00657 1.83142,-1.96141 2.75775,-2.93084 1.23821,-0.32624 2.31052,-0.99729 3.35364,-1.88317 0.51227,-0.43896 1.02321,-0.87395 1.53946,-1.30363 0.60915,-0.40448 1.22228,-0.76387 1.86593,-1.08879 1.14398,-0.36735 2.29194,-0.64186 3.46644,-0.8567 0.72992,-0.0478 1.44656,-0.0663 2.17781,-0.0491 M 328.9855,197.2108 c -1.38021,0.16577 -2.71662,0.38857 -4.07559,0.66839 -2.64362,0.54373 -5.27663,1.67231 -7.54734,3.10723 -0.12077,0.0756 -0.23888,0.15251 -0.35699,0.23075 -2.46977,-0.40448 -5.10676,0.29176 -6.90634,2.1988 -1.16654,1.23334 -2.40076,2.39904 -3.51953,3.6735 -1.71065,1.94814 -3.24083,4.05676 -4.66084,6.21577 -1.35765,2.0675 -2.30654,4.32598 -3.22491,6.61098 -0.87059,2.18553 -1.18246,4.60447 -1.44125,6.92527 -0.30126,2.70539 -0.31586,5.42405 -0.13537,8.13342 0.62773,9.30974 4.01852,19.22421 11.40661,25.33256 2.07827,1.71475 4.17246,2.94278 6.67143,3.93741 2.06899,0.82886 4.09019,1.1604 6.29852,1.45482 4.9714,0.66839 10.04631,0.18168 14.88897,-1.07155 2.60249,-0.6737 5.11605,-1.8288 7.49558,-3.05153 2.3437,-1.20151 4.41666,-2.90697 6.46972,-4.53286 1.64297,-1.30097 3.11077,-2.8022 4.49495,-4.36709 1.85001,-2.08739 3.45185,-4.43472 4.61308,-6.96771 0.99534,-2.16564 1.74251,-4.33128 2.12074,-6.67728 0.42069,-2.64705 0.5335,-5.17473 0.31187,-7.84299 -0.45122,-5.43997 -1.97077,-10.78577 -4.81081,-15.46849 -1.45718,-2.39905 -3.33373,-4.55408 -5.07093,-6.75552 -1.80887,-2.29959 -3.89245,-4.42942 -6.12732,-6.30994 -1.7518,-1.47072 -3.60844,-2.75579 -5.70264,-3.67217 -1.15061,-0.50262 -2.24416,-0.94291 -3.44255,-1.29567 -1.39879,-0.41377 -2.91834,-0.4814 -4.3649,-0.64187 -0.28533,-0.0331 -0.57067,-0.0451 -0.85865,-0.0451 -0.84538,0 -1.69872,0.11272 -2.52551,0.21086" />
        <path
           style="fill:#4d4d4d"
           inkscape:connector-curvature="0"
           id="Fill-682"
           d="m 255.53034,211.29059 c 0.85668,0.16278 1.68659,0.36494 2.51785,0.62749 0.91825,0.44896 1.78297,0.95962 2.6343,1.5333 1.73478,1.47421 3.28752,3.10465 4.7479,4.83879 0.90086,1.24317 1.70132,2.51391 2.39871,3.87392 0.34803,0.9885 0.61173,1.98488 0.81519,3.01014 0.095,1.51229 0.0495,2.99438 -0.091,4.50142 -0.57157,3.20704 -1.51258,6.30644 -2.71462,9.34283 -0.74023,1.57268 -1.56612,3.0784 -2.55934,4.5093 -0.77637,0.86247 -1.5929,1.65406 -2.47769,2.40364 -1.47778,0.98194 -3.00107,1.81028 -4.61271,2.55067 -2.66241,0.98194 -5.3797,1.7092 -8.18132,2.20017 -1.29975,0.1024 -2.56872,0.11158 -3.86177,0.0184 -0.9718,-0.20348 -1.9088,-0.45946 -2.84848,-0.77584 -1.85124,-0.87954 -3.59138,-1.90611 -5.26191,-3.08102 -1.38274,-1.16047 -2.64635,-2.39839 -3.835,-3.75184 -1.09628,-1.51491 -2.05068,-3.08233 -2.86587,-4.76003 -0.59968,-1.64093 -1.0481,-3.30287 -1.364,-5.01864 -0.11244,-1.30881 -0.13787,-2.59136 -0.0549,-3.89755 0.2048,-0.90973 0.45779,-1.78665 0.76967,-2.65963 0.65992,-1.25367 1.40818,-2.43252 2.22069,-3.59693 0.18338,-0.22054 0.36677,-0.43846 0.5555,-0.65506 1.41621,-1.65669 2.35187,-3.33833 2.35187,-5.56869 0,-0.86904 -0.14858,-1.72758 -0.43102,-2.53886 0.5381,0.31506 1.12172,0.56317 1.73344,0.72858 1.65715,0.44634 3.99429,0.34919 5.43861,-0.70232 1.25022,-0.90842 2.47501,-1.7499 3.83232,-2.43909 0.86204,-0.26124 1.71872,-0.46471 2.60351,-0.62355 2.82438,-0.26387 5.71034,-0.31113 8.54007,-0.0696 m -3.5365,-14.24727 c -3.29422,0.0722 -6.58308,0.35969 -9.80903,1.04626 -3.2728,0.69839 -6.1119,2.45616 -8.75825,4.37933 -1.54203,1.11847 -2.71327,2.25137 -3.24201,4.1391 -0.34803,1.23793 -0.33063,2.55461 0.0321,3.78072 -3.07068,-1.94418 -7.56158,-1.81422 -10.10753,0.98325 -1.56345,1.71708 -3.02784,3.53786 -4.25665,5.51223 -2.5821,4.1693 -3.73327,8.97921 -3.84838,13.81407 -0.0522,2.14897 0.40291,4.40558 0.74826,6.51255 0.28779,1.76958 0.8366,3.48666 1.46439,5.1591 1.77226,4.72721 4.49625,8.86106 7.94708,12.58927 2.67178,2.88673 6.05033,5.251 9.47438,7.19912 4.51232,2.56905 9.55872,3.80041 14.75103,3.8411 2.33178,0.0197 4.73183,-0.46734 7.01677,-0.88742 2.26887,-0.41483 4.49224,-1.1224 6.66205,-1.89167 4.95672,-1.74858 9.50518,-4.35964 13.25986,-8.0104 3.20052,-3.11778 5.2753,-7.09672 6.9378,-11.14786 0.85802,-2.10303 1.60093,-4.22574 2.2073,-6.40491 0.7322,-2.6255 1.11369,-5.3232 1.40148,-8.01958 0.19275,-1.76959 0.15126,-3.51817 -0.0415,-5.28251 -0.15796,-1.4414 -0.40291,-2.84604 -0.72283,-4.26118 -0.30252,-1.318 -0.8781,-2.54805 -1.41085,-3.78466 -1.78833,-4.12203 -4.73184,-7.63495 -7.88015,-10.83543 -1.45369,-1.4716 -3.13761,-2.84079 -4.85231,-4.00914 -2.02927,-1.39545 -4.14153,-2.34851 -6.4519,-3.23068 -2.13903,-0.81521 -4.56452,-0.97931 -6.82938,-1.16966 -0.5381,-0.0473 -1.07888,-0.0643 -1.62234,-0.0643 -0.68936,0 -1.38007,0.0263 -2.06943,0.0433" />
        <path
           style="fill:#4d4d4d"
           inkscape:connector-curvature="0"
           id="Fill-684"
           d="m 95.776266,185.78259 c 1.178533,0.23198 2.317026,0.54928 3.44751,0.95457 2.607984,1.28788 4.962384,2.88106 7.275404,4.61823 1.34003,1.10256 2.60532,2.24379 3.75316,3.53166 0.55523,0.83059 1.03972,1.68384 1.4775,2.57842 0.65,1.87983 1.1158,3.78364 1.45882,5.73946 0.16951,1.74916 0.20554,3.47567 0.0841,5.23816 -0.2883,1.47186 -0.68737,2.89706 -1.19455,4.31559 -0.99702,2.1038 -2.18623,4.08095 -3.54361,5.9821 -1.81385,2.19712 -3.7932,4.17827 -5.99277,5.99276 -2.49587,1.7945 -5.110536,3.35168 -7.898707,4.63689 -2.329038,0.87458 -4.695447,1.52252 -7.139269,1.96781 -1.490851,0.12266 -2.959012,0.13466 -4.444524,0.0187 -0.84486,-0.17465 -1.668365,-0.38263 -2.491871,-0.64127 -0.567244,-0.28931 -1.114467,-0.60261 -1.653683,-0.95058 -0.958309,-0.85192 -1.833867,-1.7585 -2.666715,-2.73441 -0.860876,-1.23454 -1.614977,-2.51442 -2.274315,-3.87029 -0.919603,-2.5051 -1.502864,-5.07819 -1.943312,-7.70727 -0.09743,-1.10656 -0.138808,-2.18779 -0.08142,-3.29568 0.153489,-0.65194 0.325665,-1.29588 0.509852,-1.94248 0.336343,-1.17723 0.367041,-2.37711 0.145482,-3.51834 0.07608,-0.18798 0.149485,-0.37996 0.220224,-0.57461 0.472481,-1.32254 0.962313,-2.64375 1.45348,-3.96495 1.243933,-2.76641 2.605319,-5.41415 4.372451,-7.89658 1.261284,-1.48253 2.629343,-2.83307 4.122864,-4.08228 1.66703,-1.19055 3.400795,-2.22512 5.249344,-3.11304 1.442802,-0.53728 2.901621,-0.97457 4.411157,-1.27721 1.117138,-0.084 2.222263,-0.0827 3.343404,-0.005 M 84.87717,172.83849 c -8.399217,3.06238 -15.332943,9.10847 -19.973667,16.69174 -2.439817,3.98362 -4.061468,8.48319 -5.625727,12.86277 -0.03203,0.0893 -0.06006,0.17999 -0.08676,0.27198 -0.884901,0.93858 -1.502864,2.08247 -1.935304,3.36768 -0.224228,0.6626 -0.437779,1.32387 -0.631309,1.99981 -0.05739,0.21998 -0.109445,0.44262 -0.166837,0.6626 -0.156159,1.11323 -0.306979,2.22379 -0.453795,3.33702 -0.02536,1.39586 0.07875,2.7144 0.260265,4.09427 0.292297,2.19713 0.663342,4.33292 1.121141,6.49938 0.866215,4.07161 2.60265,8.12856 4.884973,11.60823 2.69074,4.09827 6.298412,7.81659 10.698892,10.0617 4.369782,2.23312 9.446951,2.93706 14.301226,2.63975 5.631066,-0.3493 10.912443,-2.10913 16.000292,-4.43691 4.47389,-2.04647 8.53536,-5.08218 12.2111,-8.32187 1.5736,-1.39053 2.96569,-2.97972 4.29504,-4.60356 1.8352,-2.23979 3.47287,-4.58356 4.90098,-7.10332 1.21991,-2.16246 2.15419,-4.53157 2.93632,-6.88068 0.79147,-2.36911 1.07843,-4.9102 1.308,-7.38463 0.23491,-2.47843 -0.10411,-4.94753 -0.44312,-7.39529 -0.39106,-2.80107 -1.01703,-5.49415 -2.03273,-8.13923 -0.88224,-2.30244 -1.94598,-4.43691 -3.44751,-6.39539 -1.38675,-1.81182 -2.80419,-3.36368 -4.54063,-4.8382 -2.47051,-2.09314 -5.18794,-4.05695 -7.94542,-5.76479 -3.94134,-2.44243 -8.36852,-3.98895 -12.961188,-4.51557 C 96.622461,171.05066 95.693515,171 94.768574,171 c -3.371433,0 -6.705494,0.6746 -9.891404,1.83849" />
        <path
           style="fill:#4d4d4d"
           inkscape:connector-curvature="0"
           id="Fill-686"
           d="m 288.68878,0.14494309 c -6.89206,0.0474113 -13.76684,0.14765232 -20.65891,0.41315555 -13.74159,0.51746036 -27.50444,0.39148182 -41.25534,0.37522652 -13.91841,-0.0108369 -27.8315,0.31155994 -41.7499,0.51339654 -4.95368,0.069085 -9.90336,0.074503 -14.85304,0.3169784 -5.00552,0.2492479 -10.00174,0.656985 -15.00859,0.9577081 -4.60535,0.2749855 -9.21202,0.5608079 -13.8187,0.8520487 -2.44094,0.1584891 -4.88719,0.2749855 -7.33345,0.3969002 -1.06492,0.05283 -2.13383,0.100241 -3.19875,0.1747445 -1.75492,0.1164963 -3.60956,0.1964182 -5.28205,0.7680629 -1.89053,0.6447936 -3.458,1.7244165 -4.48171,3.5124995 -0.97584,1.693261 -1.36538,3.985258 -0.7578,5.884419 0.62884,1.947927 1.68313,3.561265 3.44869,4.613796 1.20983,0.724715 2.72545,1.106715 4.12274,1.074204 0.57434,-0.01355 1.13804,-0.09211 1.6818,-0.227574 5.73541,-0.392836 11.48811,-0.548616 17.2275,-0.941453 6.72455,-0.460567 13.45575,-0.799219 20.18163,-1.227275 6.7764,-0.434829 13.55413,-0.44973 20.33584,-0.555389 6.93328,-0.111078 13.85593,-0.222156 20.78389,-0.382 9.02589,-0.211319 18.0571,-0.2059 27.08831,-0.2059 4.93373,0.0054 9.86746,0.0054 14.80119,-0.03116 6.79235,-0.04877 13.58604,-0.218092 20.37839,-0.482241 7.08351,-0.274985 14.16303,-0.31156 21.25718,-0.380645 7.04097,-0.06367 14.08858,-0.163907 21.1362,-0.105659 6.85484,0.05825 13.70968,0.34407 20.56585,0.555389 6.65807,0.205901 13.32545,0.444312 19.97821,0.799219 6.99045,0.375226 13.97026,0.910297 20.95539,1.354608 10.19451,0.655631 20.40365,1.052531 30.60348,1.544254 9.88873,0.476822 19.85989,0.381999 29.69012,-0.799219 0.65942,-0.0894 1.32417,-0.178808 1.98492,-0.269567 1.26701,-0.36439 2.36782,-1.015956 3.30245,-1.962828 C 441.2063,15.262372 442,13.310382 442,11.29337 c 0,-2.0102389 -0.7937,-3.9622295 -2.18568,-5.3805045 -1.26168,-1.2855233 -3.43274,-2.455905 -5.28737,-2.2337492 -7.05161,0.8466302 -14.08858,1.0850413 -21.18273,1.0159563 -6.65276,-0.062312 -13.28424,-0.44973 -19.92769,-0.750453 C 386.29712,3.6168043 379.17771,3.2402232 372.05698,2.7539188 365.04127,2.2825151 358.02423,1.7108704 350.99789,1.393892 337.24566,0.78025442 323.48946,0.17609909 309.71596,0.02302834 308.25485,0.00677304 306.79242,0 305.33131,0 299.78602,0 294.23673,0.09888641 288.68878,0.14494309" />
        <path
           style="fill:#4d4d4d"
           inkscape:connector-curvature="0"
           id="Fill-688"
           d="m 17.173977,136.11664 c -1.281281,1.2568 -2.316524,3.28112 -2.157876,5.11027 0.408719,4.83201 2.436182,9.41213 4.563136,13.73377 2.636508,5.34765 6.538164,10.15328 10.619979,14.49602 3.964846,4.21878 8.706797,7.53683 13.654451,10.54496 3.43378,2.09159 8.144808,0.74248 10.146726,-2.61118 2.083931,-3.49345 0.771727,-7.86652 -2.65802,-9.95283 -1.871504,-1.13942 -3.734942,-2.29731 -5.519055,-3.5607 -3.182364,-2.60459 -6.012476,-5.52701 -8.612684,-8.68548 -1.591854,-2.13379 -3.039849,-4.33088 -4.318442,-6.66512 -0.481321,-0.87303 -0.900796,-1.77375 -1.305482,-2.67975 -0.825505,-2.15621 -1.47354,-4.32296 -2.102753,-6.54115 C 28.607362,136.20368 25.660281,134 22.378426,134 c -1.942761,0 -3.833088,0.76753 -5.204449,2.11664" />
        <path
           style="fill:#4d4d4d"
           inkscape:connector-curvature="0"
           id="Fill-690"
           d="m 2.0574028,176.10191 c -2.80177605,2.81613 -2.68399939,7.3159 0,10.15308 3.1943649,3.37515 7.5141512,5.64148 11.3942382,8.12746 2.525655,1.61918 5.178247,2.93452 8.066393,3.77765 3.056959,0.89311 6.384804,0.95493 9.533367,0.72869 3.880086,-0.27753 7.765408,-0.99702 11.589224,-1.71125 1.788896,-0.32883 3.47572,-1.8441 4.365588,-3.36989 0.986707,-1.69547 1.252358,-3.76055 0.73545,-5.652 -0.501205,-1.83358 -1.722157,-3.42645 -3.352709,-4.38796 -1.804601,-1.05885 -3.635373,-1.11015 -5.628416,-0.73922 -1.88181,0.34856 -3.774088,0.68397 -5.668984,0.9694 -2.174942,0.25518 -4.334181,0.39986 -6.518284,0.24597 -0.823128,-0.17099 -1.620083,-0.38276 -2.422273,-0.64188 -2.698395,-1.33507 -5.180865,-3.12787 -7.734001,-4.72075 -1.962945,-1.22194 -3.849989,-2.51229 -5.705626,-3.90392 C 9.5977266,174.32883 8.3964046,174 7.1074045,174 c -1.8857353,0 -3.7151995,0.76026 -5.0500017,2.10191" />
        <path
           style="fill:#4d4d4d"
           inkscape:connector-curvature="0"
           id="Fill-692"
           d="m 98.603463,220.35621 0.07183,0.16188 c -0.0244,-0.054 -0.04879,-0.10792 -0.07183,-0.16188 m -14.603447,-0.5704 c -0.0054,3.72307 1.408165,7.41659 4.505044,9.81513 1.66703,1.28471 3.435707,2.32403 5.379219,3.17194 3.244608,1.42088 6.532591,2.72999 9.873421,3.93505 1.74699,0.63207 4.07135,0.16444 5.62724,-0.6976 1.63044,-0.90443 2.85428,-2.40496 3.3571,-4.13546 0.51773,-1.78702 0.24802,-3.73335 -0.73593,-5.33024 -1.03275,-1.67011 -2.52088,-2.51416 -4.36816,-3.18092 -1.07205,-0.38798 -2.13597,-0.78367 -3.20531,-1.17936 -2.10615,-0.85947 -4.21907,-1.74335 -6.168005,-2.88416 -0.215493,-1.65213 -0.7278,-3.07173 -2.041094,-4.31275 C 94.889918,213.71815 93.05212,213 91.16282,213 c -3.907354,0 -7.153317,3.08714 -7.162804,6.78581" />
        <path
           style="fill:#4d4d4d"
           inkscape:connector-curvature="0"
           id="Fill-694"
           d="m 98,209 c 0,3.81549 3.18451,7 7,7 3.81549,0 7,-3.18451 7,-7 0,-3.81549 -3.18451,-7 -7,-7 -3.81549,0 -7,3.18451 -7,7" />
      </g>
    </g>
  </g>
</svg>
