<svg height="401.14001" viewBox="0 0 390.02705 401.14002" width="390.02704" xmlns="http://www.w3.org/2000/svg">
<g transform="translate(-5.557218)">
<path d="m370.355 76.427c-15.015-16.264-36.613-24.511-64.195-24.511-26.49 0-49.499 6.163-66.539 17.823-15.063 10.308-25.271 24.807-28.743 40.827-5.41 24.961 6.218 48.674 28.936 59.007.196.089.397.166.603.232.238.076 23.824 7.896 23.824 32.318 0 14.129-7.336 21.342-15.829 29.694-9.165 9.012-19.552 19.227-19.552 38.794 0 .072.001.144.004.216.025.636.722 15.744 10.385 30.908 16.176 25.384 44.115 30.712 64.704 30.712 30.843 0 55.571-18.898 71.512-54.652 14.036-31.483 17.295-66.445 17.959-76.41.137-2.049.325-4.396.533-6.998 2.206-27.598 6.801-85.027-23.602-117.96zm12.635 117.084c-.213 2.655-.404 5.052-.544 7.143-.824 12.364-10.03 120.795-78.495 120.795-60.388 0-63.929-47.871-64.093-50.963.042-14.873 7.562-22.266 16.265-30.823 8.96-8.811 19.116-18.799 19.116-37.538 0-25.634-20.176-39.046-31.144-42.688-17.708-8.201-26.733-26.864-22.469-46.539 2.874-13.263 11.471-25.365 24.205-34.079 15.203-10.402 36.063-15.901 60.327-15.901 24.387 0 43.266 7.057 56.112 20.973 27.139 29.393 22.803 83.579 20.72 109.62z"/><path d="m231.645 60.708c15.646 0 28.503-12.121 29.7-27.465 3.841 6.514 10.926 10.896 19.02 10.896 9.675 0 17.909-6.26 20.881-14.938 2.401 8.602 10.288 14.938 19.645 14.938 7.44 0 13.942-4.014 17.51-9.976.549 9.854 8.714 17.708 18.702 17.708 10.342 0 18.756-8.414 18.756-18.756s-8.414-18.756-18.756-18.756c-6.659 0-12.503 3.498-15.831 8.743-.334-10.967-9.336-19.79-20.381-19.79-8.771 0-16.245 5.572-19.127 13.354-2.417-9.564-11.093-16.666-21.4-16.666-10.875 0-19.932 7.909-21.735 18.276-4.763-10.136-15.064-17.173-26.984-17.173-16.434 0-29.804 13.369-29.804 29.803 0 16.433 13.37 29.802 29.804 29.802zm125.457-35.349c4.276 0 7.756 3.479 7.756 7.756 0 4.276-3.479 7.756-7.756 7.756-4.276 0-7.755-3.479-7.755-7.756 0-4.276 3.478-7.756 7.755-7.756zm-36.212-11.046c5.19 0 9.412 4.223 9.412 9.414 0 5.189-4.223 9.412-9.412 9.412s-9.411-4.223-9.411-9.412c0-5.192 4.221-9.414 9.411-9.414zm-40.526-3.313c6.104 0 11.07 4.966 11.07 11.069s-4.966 11.069-11.07 11.069-11.068-4.966-11.068-11.069 4.965-11.069 11.068-11.069zm-48.719 1.104c10.367 0 18.801 8.435 18.801 18.803 0 10.367-8.434 18.802-18.801 18.802-10.368 0-18.804-8.435-18.804-18.802 0-10.369 8.435-18.803 18.804-18.803z"/><path d="m161.521 138.434c-17.041-11.66-40.05-17.823-66.539-17.823-27.582 0-49.181 8.247-64.195 24.511-30.405 32.933-25.809 90.361-23.601 117.96.208 2.601.397 4.948.532 6.996.664 9.965 3.921 44.924 17.96 76.411 15.94 35.753 40.669 54.651 71.512 54.651 20.589 0 48.528-5.328 64.704-30.712 9.663-15.164 10.359-30.273 10.385-30.908.003-.072.004-.144.004-.216 0-19.566-10.387-29.781-19.552-38.793-8.493-8.353-15.829-15.566-15.829-29.695 0-24.23 22.869-32.005 23.824-32.317.205-.066.406-.143.603-.232 22.718-10.334 34.346-34.048 28.935-59.008-3.473-16.021-13.68-30.519-28.743-40.825zm-4.477 89.695c-10.967 3.644-31.143 17.055-31.143 42.688 0 18.739 10.156 28.727 19.117 37.538 8.701 8.557 16.22 15.951 16.264 30.819-.064 1.128-.931 13.206-8.665 25.343-10.835 17.003-29.483 25.624-55.428 25.624-68.473 0-77.672-108.43-78.495-120.794-.14-2.091-.331-4.487-.544-7.143-2.083-26.04-6.419-80.226 20.719-109.621 12.847-13.917 31.726-20.973 56.112-20.973 24.264 0 45.124 5.498 60.327 15.901 12.734 8.713 21.33 20.815 24.205 34.077 4.265 19.676-4.76 38.339-22.469 46.541z"/><path d="m169.496 69.797c-11.92 0-22.222 7.037-26.984 17.173-1.804-10.368-10.86-18.277-21.735-18.277-10.306 0-18.981 7.101-21.398 16.665-2.883-7.781-10.356-13.353-19.127-13.353-11.045 0-20.047 8.824-20.381 19.791-3.328-5.245-9.172-8.743-15.831-8.743-10.342 0-18.756 8.414-18.756 18.756 0 10.343 8.414 18.757 18.756 18.757 9.988 0 18.154-7.855 18.702-17.71 3.567 5.962 10.07 9.976 17.51 9.976 9.357 0 17.243-6.336 19.645-14.938 2.973 8.679 11.207 14.938 20.881 14.938 8.094 0 15.178-4.382 19.02-10.896 1.196 15.344 14.055 27.465 29.7 27.465 16.433 0 29.804-13.368 29.804-29.801-.002-16.434-13.372-29.803-29.806-29.803zm-125.457 39.768c-4.276 0-7.756-3.479-7.756-7.757 0-4.276 3.479-7.756 7.756-7.756 4.276 0 7.755 3.48 7.755 7.756 0 4.278-3.478 7.757-7.755 7.757zm36.212-7.734c-5.189 0-9.412-4.223-9.412-9.412 0-5.191 4.223-9.414 9.412-9.414s9.412 4.223 9.412 9.414c0 5.189-4.222 9.412-9.412 9.412zm40.525 0c-6.104 0-11.07-4.966-11.07-11.069 0-6.104 4.966-11.069 11.07-11.069s11.068 4.966 11.068 11.069c.001 6.103-4.964 11.069-11.068 11.069zm48.72 16.569c-10.367 0-18.801-8.434-18.801-18.801 0-10.368 8.434-18.803 18.801-18.803 10.368 0 18.804 8.435 18.804 18.803s-8.436 18.801-18.804 18.801z"/>
</g>
</svg>