<?xml version="1.0" encoding="UTF-8" standalone="no"?>
<svg
   xmlns:dc="http://purl.org/dc/elements/1.1/"
   xmlns:cc="http://creativecommons.org/ns#"
   xmlns:rdf="http://www.w3.org/1999/02/22-rdf-syntax-ns#"
   xmlns:svg="http://www.w3.org/2000/svg"
   xmlns="http://www.w3.org/2000/svg"
   xmlns:sodipodi="http://sodipodi.sourceforge.net/DTD/sodipodi-0.dtd"
   xmlns:inkscape="http://www.inkscape.org/namespaces/inkscape"
   width="462.09015"
   height="462.09015"
   viewBox="0 0 462.09015 462.09015"
   version="1.1"
   id="svg30"
   sodipodi:docname="educaciocritica.svg"
   inkscape:version="0.92.2 5c3e80d, 2017-08-06">
  <metadata
     id="metadata21">
    <rdf:RDF>
      <cc:Work
         rdf:about="">
        <dc:format>image/svg+xml</dc:format>
        <dc:type
           rdf:resource="http://purl.org/dc/dcmitype/StillImage" />
      </cc:Work>
    </rdf:RDF>
  </metadata>
  <defs
     id="defs19" />
  <sodipodi:namedview
     pagecolor="#ffffff"
     bordercolor="#666666"
     borderopacity="1"
     objecttolerance="10"
     gridtolerance="10"
     guidetolerance="10"
     inkscape:pageopacity="0"
     inkscape:pageshadow="2"
     inkscape:window-width="645"
     inkscape:window-height="480"
     id="namedview17"
     showgrid="false"
     inkscape:zoom="0.51072285"
     inkscape:cx="231.04507"
     inkscape:cy="231.04507"
     inkscape:window-x="0"
     inkscape:window-y="0"
     inkscape:window-maximized="0"
     inkscape:current-layer="cognition" />
  <g
     id="cognition_DL"
     style="fill:none;fill-rule:evenodd;stroke:none;stroke-width:1"
     transform="translate(-229.36756,-225.81101)">
    <g
       id="cognition"
       transform="translate(287.35268,225.00001)">
      <g
         id="Group-13" />
      <g
         id="g43">
        <path
           style="fill:none;fill-rule:evenodd;stroke:none;stroke-width:1"
           inkscape:connector-curvature="0"
           id="Path-2"
           d="m 271.8125,455.94531 c -42.28646,-14.42187 -63.42969,-27.02864 -63.42969,-37.82031 0,-16.1875 -32.35156,-100.14063 15.53906,-100.14063 47.89063,0 74.35157,24.65625 74.35157,0 0,-16.4375 0,-49.71354 0,-99.82812 h 39.69531 L 298.27344,145.25781 C 293.44531,51.528646 263.48177,4.6640625 208.38281,4.6640625 125.73438,4.6640625 10.898438,56.9375 10.898438,160.71875 c 0,103.78125 78.117187,174.52344 89.757812,174.52344 7.76042,0 7.76042,12 0,36 l -71.992188,84.70312 z" />
        <path
           style="fill:#4d4d4d;fill-rule:evenodd;stroke:none;stroke-width:1"
           inkscape:connector-curvature="0"
           id="Fill-3"
           d="m 181.40938,0.88881463 c -5.41547,0.0933659 -10.83094,0.76248777 -16.18565,1.48112197 -3.25182,0.4357073 -6.51354,0.8346341 -9.75406,1.3481463 -3.17552,0.5021951 -6.32135,1.0496586 -9.47849,1.6692683 -5.73627,1.1161464 -11.33405,2.9834634 -16.89367,4.7630728 -2.58337,0.828976 -5.1724,1.635318 -7.77838,2.38083 -2.67665,0.768146 -5.3759,1.471219 -8.037,2.304439 -2.79394,0.884146 -5.62039,1.741414 -8.33095,2.868878 -1.63369,0.679024 -3.31684,1.298634 -4.91802,2.061122 -1.430179,0.673366 -2.858948,1.353805 -4.289129,2.032829 -2.760025,1.309951 -5.415472,2.895756 -8.070918,4.399512 -2.401066,1.363707 -4.731471,2.867464 -7.077421,4.320293 -10.002794,6.206 -20.210504,12.412 -28.568306,20.816341 -2.296488,2.310098 -4.532207,4.641415 -6.734008,7.046293 -1.827298,1.988976 -3.566976,4.061415 -5.327852,6.11122 -1.815991,2.121951 -3.648942,4.238243 -5.382966,6.432341 -2.013844,2.557658 -4.034753,5.139366 -5.768777,7.896488 -3.145835,5.00639 -6.304389,10.018439 -9.212802,15.169122 -2.909827,5.160585 -5.768777,10.338148 -8.103421,15.792978 -1.226678,2.85614 -2.4632484,5.74624 -3.3239013,8.73536 -0.4310331,1.50376 -0.8663058,3.00044 -1.2973389,4.49854 -0.4635372,1.60844 -0.773033,3.27205 -1.1588429,4.90171 -0.6628017,2.77409 -1.1602562,5.5977 -1.6789091,8.40434 -0.5681157,3.0839 -1.0924215,6.17771 -1.500843,9.28424 -0.7560744,5.74059 -1.513562,11.51088 -1.7891405,17.29532 -0.14838843,3.08956 -0.29253719,6.17346 -0.35330579,9.26161 -0.0607686,3.17161 -0.0113058,6.322 0.0494628,9.49361 0.0282645,1.1218 0.12153719,2.23795 0.19926447,3.3541 0.0989256,1.46414 0.15404132,2.93395 0.31373553,4.39385 0.36461159,3.37107 0.73487609,6.73507 1.19841329,10.09483 0.8055371,5.81415 1.6676033,11.64951 3.2631322,17.30805 0.3688512,1.29863 0.6783471,2.63546 1.1263388,3.91712 l 1.7721818,5.10683 c 0.8832645,2.54634 1.9587276,5.03893 2.9578766,7.53717 2.197562,5.46473 4.383818,10.93512 6.58138,16.40127 1.24081,3.08249 2.43357,6.19327 3.774719,9.22766 0.63595,1.42595 1.264834,2.85756 1.899371,4.2821 0.607686,1.38209 1.346802,2.7076 2.032215,4.05716 1.219612,2.38083 2.644141,4.6683 4.106827,6.90625 1.551719,2.36527 3.124636,4.71922 4.841702,6.96283 2.036455,2.66941 4.057364,5.35439 6.198397,7.9361 1.821645,2.18278 3.622091,4.41507 5.669851,6.39273 2.108529,2.03424 4.234017,4.01756 6.486695,5.89053 2.279528,1.89561 4.560471,3.78557 6.834347,5.67552 5.079124,4.22692 10.262826,8.34351 15.484686,12.38936 2.803834,2.17712 5.691049,4.17742 8.76057,5.96268 2.34595,1.36371 4.720165,2.5803 6.944578,4.12225 0.558224,0.47956 1.076876,0.98883 1.563025,1.54054 0.722157,1.08361 1.307232,2.2337 1.854149,3.41068 0.624644,1.71737 1.004801,3.46444 1.297339,5.25961 0.149801,1.73575 0.121537,3.44888 -0.03816,5.18888 -0.607686,4.15619 -1.407571,8.30531 -2.456182,12.37239 -0.685413,2.65244 -1.418876,5.25536 -2.237132,7.86961 -0.645843,2.07809 -1.457033,4.09395 -2.251265,6.12253 -0.801297,1.71312 -1.601182,3.42625 -2.401066,5.14503 -0.784339,1.67917 -1.722719,3.28761 -2.60033,4.92292 -1.971447,3.65259 -4.102587,7.21181 -6.211116,10.78659 -3.730909,6.34463 -7.926769,12.39502 -12.116975,18.43976 -0.949686,1.21658 -1.899372,2.43175 -2.854711,3.65258 -0.944033,1.20527 -1.83719,2.48127 -2.853298,3.62571 -1.529107,1.71312 -3.052562,3.42624 -4.581669,5.13936 -1.010455,1.13313 -1.982752,2.33132 -3.075174,3.3923 -2.776983,2.68073 -5.464934,5.47605 -8.412917,7.96297 -1.612488,1.35947 -3.229215,2.71893 -4.841703,4.07839 -1.485297,1.26044 -3.086479,2.39781 -4.621239,3.59176 0.38157,-0.29849 0.76738,-0.59132 1.154603,-0.88981 -2.805248,2.1163 -5.609082,4.23825 -8.380413,6.39981 -1.213959,0.94356 -2.406719,1.92249 -3.565562,2.93395 -0.85076,0.73985 -1.811752,1.72868 -2.351603,2.69629 -0.552571,0.97752 -1.109381,2.09366 -1.004802,3.26639 0.115884,1.35947 0.275578,2.51947 1.075463,3.66249 0.862066,1.2279 1.838603,2.15025 3.323901,2.55907 1.435834,0.39186 2.997446,0.18815 4.283479,-0.56302 1.401917,-0.82332 2.263983,-2.11205 2.573479,-3.53659 0.849347,-0.79644 1.766529,-1.52073 2.682298,-2.23795 2.186256,-1.66361 4.393711,-3.29892 6.596925,-4.93566 2.296488,-1.70746 4.62548,-3.42624 6.823042,-5.26526 2.197562,-1.8461 4.488396,-3.60874 6.547463,-5.60337 1.401917,-1.3538 2.809487,-2.71327 4.211404,-4.06707 0.822496,-0.79644 1.717067,-1.55327 2.478794,-2.40488 2.290835,-2.57464 4.587322,-5.14927 6.88381,-7.71966 1.910677,-2.14883 3.593826,-4.51975 5.360355,-6.78459 3.544364,-4.53248 6.807496,-9.28424 9.886909,-14.14209 1.513562,-2.38649 3.080827,-4.74044 4.516661,-7.1722 1.611075,-2.74014 3.3451,-5.43785 4.851596,-8.24449 1.336909,-2.47561 2.805247,-4.91868 3.992355,-7.47068 1.462686,-3.12775 2.94233,-6.22863 4.184555,-9.45541 0.47908,-1.24912 1.03165,-2.49683 1.42877,-3.77991 l 1.49095,-4.77439 c 0.84511,-2.71892 1.40192,-5.56375 2.0308,-8.33785 0.60769,-2.68073 1.11503,-5.40532 1.4853,-8.12849 0.39711,-2.93961 0.70661,-5.78019 0.38722,-8.74244 -0.1823,-1.73009 -0.44234,-3.48141 -0.84511,-5.1719 -0.3858,-1.62541 -0.95533,-3.15039 -1.63368,-4.67536 -0.73488,-1.6523 -1.50226,-3.26074 -2.56217,-4.73054 -0.89457,-1.24346 -1.8485,-2.36951 -2.9918,-3.38664 -0.723571,-0.64082 -1.523455,-1.20526 -2.302141,-1.78526 -0.949686,-0.70166 -1.954487,-1.33683 -2.969182,-1.94513 -2.037868,-1.22082 -4.152049,-2.30443 -6.156,-3.58043 -2.059066,-1.31561 -4.029099,-2.73591 -5.968041,-4.21137 -5.983587,-4.75742 -11.93467,-9.54878 -17.796719,-14.45615 -1.745331,-1.45848 -3.477942,-2.92263 -5.189356,-4.42497 -1.507908,-1.32127 -2.931024,-2.72459 -4.372512,-4.118 -1.485297,-1.43586 -2.820793,-3.08249 -4.140744,-4.66829 -1.225264,-1.48679 -2.422264,-2.98488 -3.620677,-4.48722 -1.325604,-1.74142 -2.632835,-3.48708 -3.903323,-5.26669 -1.346801,-1.89561 -2.710562,-3.81809 -3.892016,-5.81839 -1.274728,-2.16156 -2.533909,-4.29341 -3.675794,-6.52571 -1.120686,-2.19409 -2.119834,-4.42073 -3.118983,-6.67 -3.859512,-9.34507 -7.685108,-18.71136 -11.400471,-28.11019 -1.865455,-4.7362 -3.605132,-9.56576 -4.714512,-14.54527 -0.657149,-2.95517 -1.230918,-5.89054 -1.749571,-8.874 -0.364611,-2.12195 -0.651496,-4.25522 -0.949686,-6.39414 -0.231768,-2.02718 -0.457884,-4.05576 -0.689653,-6.08859 -0.248727,-2.16722 -0.330694,-4.3599 -0.491801,-6.53137 -0.159694,-2.11204 -0.132843,-4.24956 -0.182306,-6.36585 -0.05512,-2.08376 0.03392,-4.17883 0.06642,-6.26117 0.115885,-7.94176 0.894571,-15.83259 1.882414,-23.70644 0.81119,-5.13371 1.734025,-10.23912 2.760025,-15.34029 0.474842,-2.34829 1.06557,-4.68527 1.722718,-6.98971 0.330695,-1.16566 0.613339,-2.36527 1.016108,-3.51537 0.518653,-1.4698 1.031653,-2.92829 1.551719,-4.39809 1.103727,-2.60859 2.224413,-5.21576 3.537297,-7.73098 1.678909,-3.20414 3.362058,-6.40405 5.17805,-9.531803 1.872521,-3.216878 3.715364,-6.459219 5.681157,-9.620927 1.054264,-1.690488 2.114182,-3.380975 3.168446,-5.072878 0.927075,-1.481122 1.982752,-2.901414 2.976248,-4.337268 1.644992,-2.095073 3.316835,-4.171756 5.039554,-6.206 2.102876,-2.47561 4.167595,-5.000732 6.348198,-7.398537 2.345951,-2.581707 4.720166,-5.089853 7.160802,-7.571122 2.285182,-2.321414 4.807785,-4.398097 7.286579,-6.49317 2.672405,-2.01161 5.366008,-3.956732 8.175495,-5.774537 3.390323,-2.199756 6.811736,-4.348585 10.240215,-6.493171 3.097785,-1.933805 6.194157,-3.867609 9.362604,-5.679756 3.439785,-1.967756 6.955889,-3.73039 10.517209,-5.437853 4.14498,-1.713122 8.32388,-3.266391 12.64694,-4.492879 4.99574,-1.420292 9.96463,-2.895756 14.90526,-4.492878 2.32334,-0.75117 4.64244,-1.524975 6.99404,-2.187024 2.77133,-0.779463 5.54266,-1.492439 8.34084,-2.167219 4.75409,-1.137366 9.64384,-1.745659 14.47989,-2.420439 2.88721,-0.380537 5.78008,-0.745513 8.6673,-1.093513 3.14159,-0.376292 6.30438,-0.51917 9.45728,-0.686097 6.40897,-0.348 12.84479,0.161268 19.22125,0.802097 3.33945,0.486634 6.67466,0.994488 9.99149,1.635317 3.78179,0.729952 7.57488,1.442927 11.29589,2.464293 7.18766,1.979073 14.12658,4.692342 21.0217,7.504634 3.04691,1.403317 6.0387,2.840586 8.9033,4.586244 3.09779,1.878634 6.08958,3.884585 9.03615,5.974 1.57999,1.254781 3.15855,2.519464 4.53221,3.994927 0.86206,0.918098 1.78349,1.802244 2.57913,2.779756 0.70661,0.855854 1.40192,1.724439 2.10288,2.585951 2.61163,3.67522 5.11728,7.443805 7.18765,11.467025 1.1758,2.281805 2.3516,4.552292 3.44968,6.868049 0.93272,1.973414 1.81175,3.96239 2.67805,5.968341 1.05003,2.724585 2.05907,5.437854 2.99745,8.200634 0.91577,2.696293 1.60684,5.453415 2.25833,8.221854 1.29734,5.525561 2.27388,11.119024 3.18965,16.716729 0.92848,5.66278 1.86121,11.32698 2.7572,16.99683 0.92566,5.86932 1.70999,11.77542 2.94656,17.5839 0.75891,3.55781 1.92905,7.0562 3.4624,10.37493 1.78632,-0.24898 3.48925,-0.406 4.97879,-0.49512 0.65573,-0.0382 1.3256,-0.0552 1.99123,-0.0552 1.49943,0 3.02147,0.0976 4.54068,0.27727 -1.00338,-1.7202 -1.93187,-3.48708 -2.75719,-5.3162 -2.25834,-5.77454 -3.13029,-11.88717 -4.06867,-17.98707 -0.88327,-5.76888 -1.79904,-11.52785 -2.71622,-17.29107 -0.91577,-5.719371 -1.87111,-11.433078 -2.91406,-17.12981 -0.54127,-2.962244 -1.24788,-5.896195 -1.93047,-8.830146 -0.69248,-2.956586 -1.68456,-5.829707 -2.65544,-8.704244 -0.95676,-2.817951 -2.10571,-5.580732 -3.27586,-8.316634 -1.12916,-2.646781 -2.27811,-5.304878 -3.59382,-7.862537 -1.47399,-2.87878 -2.98614,-5.713707 -4.57602,-8.527414 -1.39061,-2.469952 -2.99744,-4.789952 -4.63678,-7.094391 -3.58252,-5.046 -7.88296,-9.714292 -12.93523,-13.317366 -2.29084,-1.631073 -4.57037,-3.298926 -6.97143,-4.758829 -1.22527,-0.745512 -2.42227,-1.557512 -3.68145,-2.232292 -1.31995,-0.707318 -2.62294,-1.502342 -3.97964,-2.12761 -5.78008,-2.656683 -11.66474,-4.989415 -17.63278,-7.1990733 -2.48445,-0.9180976 -4.99575,-1.7909269 -7.55227,-2.4925854 -1.30299,-0.3593171 -2.61022,-0.7794634 -3.93017,-1.0722927 -1.57857,-0.348 -3.15714,-0.696 -4.73147,-1.044 -2.96918,-0.6521463 -5.98924,-1.1331219 -8.98669,-1.6579512 -2.94798,-0.5135122 -5.93412,-0.9732683 -8.91602,-1.2717561 -3.05256,-0.3083903 -6.08251,-0.5347317 -9.14638,-0.71721952 -1.24788,-0.0778049 -2.50141,-0.10043902 -3.74928,-0.10043902 -1.74392,0 -3.48784,0.0495122 -5.22186,0.0778049" />
        <path
           style="fill:#4d4d4d;fill-rule:evenodd;stroke:none;stroke-width:1"
           inkscape:connector-curvature="0"
           id="Fill-5"
           d="m 205.99522,360.63834 c -0.41407,3.85205 -0.85076,7.70268 -1.60118,11.50522 -0.24308,1.23215 -0.5017,2.45298 -0.74477,3.67946 -0.42538,6.1183 -0.21057,12.17435 0.33635,18.30254 1.3581,7.83566 3.25748,15.57795 5.52005,23.20849 0.55681,1.88005 1.15036,3.74736 1.72837,5.6161 1.54041,1.5377 3.09778,3.05985 4.66505,4.57917 4.0404,3.90722 8.55141,7.44946 13.30973,10.41595 3.72526,2.32141 7.81654,4.12366 11.8739,5.79151 5.50451,2.26624 11.11783,4.22693 16.69441,6.29937 5.65854,2.10073 11.19979,4.63151 16.99683,6.322 3.1628,0.92234 6.57432,-1.08361 7.44204,-4.22693 0.42962,-1.56459 0.2035,-3.26639 -0.61334,-4.66405 -0.84511,-1.45283 -2.08733,-2.21532 -3.61079,-2.78541 -6.01609,-2.2323 -11.92901,-4.71922 -17.94652,-6.93454 -2.64414,-0.97327 -5.30524,-1.88429 -7.94372,-2.86322 -2.67806,-0.99449 -5.3321,-2.02717 -7.97765,-3.09946 -1.41746,-0.65781 -2.84199,-1.30996 -4.26087,-1.96776 -3.37901,-1.56317 -6.55877,-3.65259 -9.53925,-5.89619 -3.3126,-2.6581 -6.38212,-5.56376 -9.44599,-8.50903 -2.71621,-2.60858 -5.32643,-5.37702 -7.7063,-8.30532 -1.37507,-1.88429 -2.53956,-3.85205 -3.54437,-5.96834 -0.56246,-1.38775 -1.09807,-2.77975 -1.5178,-4.22127 -0.54692,-1.8857 -0.98219,-3.75868 -1.34115,-5.68117 -0.20491,-2.55907 -0.1823,-5.10117 -0.14415,-7.67014 0.0396,-2.84625 0.12154,-5.68542 0.24308,-8.526 0.11023,-2.63688 0.3533,-5.27234 0.6628,-7.89083 0.22612,-1.91259 0.40277,-3.83507 0.60769,-5.74766 0.14273,-0.13863 0.29253,-0.2702 0.43527,-0.40317 -0.77869,-0.63517 -1.53335,-1.30005 -2.25974,-1.99039 -0.10882,0.5418 -0.21481,1.08644 -0.31798,1.63107" />
        <path
           style="fill:#4d4d4d;fill-rule:evenodd;stroke:none;stroke-width:1"
           inkscape:connector-curvature="0"
           id="Fill-7"
           d="m 135.95715,208.72955 c -0.0933,0.0736 -0.18796,0.14571 -0.28123,0.21785 0.0933,-0.0721 0.18796,-0.14429 0.28123,-0.21785 M 165.59668,61.935795 c 1.67185,-0.06083 3.32814,-0.08346 5.0014,-0.06649 2.66675,0.02122 5.31372,0.284342 7.96068,0.571513 4.83888,0.783707 9.62123,1.807902 14.40781,2.871707 2.60599,0.58 5.26567,1.093512 7.8335,1.850341 1.25777,0.376293 2.56641,0.680439 3.80298,1.133122 1.2394,0.448439 2.48445,0.902537 3.72385,1.356634 5.83096,2.560488 11.52907,5.382683 17.17631,8.319464 2.83775,1.475463 5.62039,3.105122 8.33095,4.812585 2.59751,1.632488 5.17946,3.284781 7.64837,5.104 2.90134,2.452976 5.37166,5.251122 7.74587,8.206293 0.77869,1.049658 1.48813,2.117707 2.08168,3.28761 0.2883,0.804926 0.513,1.612686 0.68117,2.454396 0.0367,0.47956 0.0495,0.95205 0.0339,1.43444 -0.30384,1.27034 -0.79847,2.49258 -1.23798,3.7219 -0.57519,1.61834 0.0367,3.37531 1.20124,4.56219 -0.72499,0.44844 -1.36942,1.06381 -1.68174,1.77678 -0.50169,1.14444 -0.9935,2.3101 -1.64499,3.38239 -0.49322,0.81625 -1.02883,1.59288 -1.5927,2.35961 -1.10232,1.36512 -2.25127,2.69912 -3.56698,3.86337 -1.58988,1.08361 -3.36488,1.90975 -5.13141,2.67649 -3.46664,1.36512 -7.02796,2.53644 -10.55961,3.7318 -3.59947,1.21942 -7.32332,1.99888 -11.07119,2.55907 -5.58223,0.72854 -11.16305,1.49244 -16.36512,3.76859 -5.22186,2.28746 -9.83744,5.69107 -14.28062,9.2121 -4.48274,3.54648 -8.06102,7.97853 -11.25067,12.68644 -2.96494,4.37687 -5.58788,8.93058 -8.00026,13.63283 -1.50649,2.93961 -2.94656,5.9457 -4.63678,8.78629 -1.83295,3.09805 -3.78744,6.07019 -5.86346,9.00839 -1.2719,1.63673 -2.56076,3.25507 -3.98953,4.76307 -1.71707,1.81215 -3.4949,3.5479 -5.32785,5.24405 -1.9658,1.82346 -3.93583,3.64127 -5.91293,5.45341 -1.41322,1.29015 -2.88156,2.48835 -4.37958,3.66391 -1.33832,0.91102 -2.6611,1.81356 -4.05453,2.64112 -1.55738,0.92376 -3.1416,1.77961 -4.73713,2.63688 -2.73317,1.46839 -5.53559,2.78966 -8.36063,4.06424 -2.05058,0.78088 -4.09693,1.5462 -6.22948,2.08517 -2.10429,0.52908 -4.20434,0.94073 -6.33972,1.27883 -2.9607,0.28576 -5.90586,0.46259 -8.88635,0.37912 -2.485859,-0.0665 -4.943454,-0.27727 -7.401049,-0.58 -2.557934,-0.47107 -5.089017,-1.01995 -7.569223,-1.8178 -2.313447,-0.74834 -4.591563,-1.55468 -6.84848,-2.44732 -2.890041,-1.45424 -5.576578,-3.17019 -8.223545,-5.02619 -1.192761,-0.96054 -2.345951,-1.95361 -3.487835,-2.98205 -1.410397,-1.26893 -2.670992,-2.67932 -3.897669,-4.12366 -0.73629,-1.00864 -1.435835,-2.03142 -2.080265,-3.10937 -0.708025,-1.17131 -1.307231,-2.38648 -1.882413,-3.62995 -0.579422,-1.46132 -1.103727,-2.93112 -1.567265,-4.43771 -0.450818,-1.46839 -0.713677,-2.99902 -0.941206,-4.51975 -0.456471,-4.63717 -0.470603,-9.29273 -0.361785,-13.94264 0.09893,-4.48722 0.402768,-8.93907 0.911529,-13.39517 0.626057,-3.98502 1.373652,-7.9559 2.621529,-11.8037 1.355281,-4.20995 2.825033,-8.36191 4.419148,-12.48839 1.192761,-2.73025 2.440637,-5.41098 3.916042,-8.00683 1.584223,-2.77976 3.384669,-5.42654 5.255777,-8.01249 3.805809,-5.26244 7.597487,-10.53195 11.524834,-15.70102 1.28886,-1.58722 2.596091,-3.14898 3.942893,-4.69518 1.390611,-1.591461 2.919719,-3.061266 4.421975,-4.542388 2.887215,-2.837756 6.054248,-5.378439 9.236828,-7.873854 2.43498,-1.831951 4.88834,-3.622878 7.42366,-5.316195 2.65969,-1.77961 5.50309,-3.298927 8.31823,-4.823902 5.33209,-2.892927 10.80974,-5.483122 16.36512,-7.902147 2.29649,-0.923756 4.59581,-1.877219 6.97002,-2.597268 2.62294,-0.802098 5.25578,-1.54761 7.92677,-2.18278 5.00564,-1.182635 10.03671,-2.219561 15.11159,-3.027317 1.12069,-0.11883 2.23996,-0.251805 3.3663,-0.288586 m 1.80469,-10.113219 c -3.22356,0.09478 -6.38212,0.454097 -9.57176,0.935073 -2.65545,0.397512 -5.28404,0.954878 -7.91688,1.496683 -2.41802,0.497951 -4.85301,1.011463 -7.24277,1.635317 -2.68795,0.703073 -5.36035,1.442927 -7.98188,2.35961 -2.89852,1.02278 -5.73062,2.188439 -8.55141,3.393707 -5.05086,2.160146 -10.03672,4.531073 -14.87842,7.128341 -4.88551,2.619903 -9.65514,5.360049 -14.103964,8.687269 -2.545215,1.899853 -5.079124,3.823756 -7.552264,5.81839 -2.097224,1.690488 -4.095521,3.487073 -6.078273,5.310536 -4.046058,3.724732 -7.501389,8.012488 -10.857794,12.34976 -3.599479,4.65839 -7.037851,9.44976 -10.527099,14.19019 -3.168446,4.30474 -6.270471,8.79195 -8.435529,13.71064 -2.412372,5.47039 -4.570363,11.00727 -6.452777,16.68844 -3.521752,10.60975 -4.405016,21.83205 -4.560471,32.95107 -0.08197,5.73493 0.176653,11.49956 1.540414,17.09161 0.700958,2.87878 1.910677,5.64297 3.124636,8.33361 1.082529,2.3978 2.539562,4.58624 4.106826,6.68556 3.566976,4.78005 8.186802,8.73678 13.144389,12.01449 2.583372,1.7018 5.211967,3.19849 8.082223,4.36556 2.56076,1.03834 5.166744,1.9338 7.799579,2.77834 5.276975,1.6919 10.819636,2.31576 16.32414,2.6482 2.693603,0.15985 5.487544,0.12024 8.175494,-0.16127 3.11898,-0.32537 6.32135,-0.63517 9.37391,-1.42595 1.30299,-0.33669 2.60033,-0.66771 3.88636,-1.0822 1.50085,-0.47532 2.95364,-1.02844 4.42198,-1.59146 2.71622,-1.05532 5.3759,-2.33839 7.96492,-3.67522 2.56783,-1.33117 5.12859,-2.66942 7.61869,-4.14912 2.71622,-1.61976 5.20066,-3.54225 7.695,-5.48171 2.02656,-1.5759 3.87647,-3.41634 5.75889,-5.162 2.01384,-1.87298 4.0404,-3.73605 6.00054,-5.66986 4.15064,-4.09395 7.81088,-8.74102 10.95248,-13.6597 1.55031,-2.43176 3.06387,-4.89039 4.39371,-7.45512 1.39627,-2.69064 2.76003,-5.40957 4.1676,-8.10161 2.64696,-5.05874 5.64441,-9.89254 8.95983,-14.53961 1.22668,-1.51932 2.4901,-2.97215 3.85951,-4.38113 1.35104,-1.38492 2.86037,-2.61707 4.37675,-3.82234 3.18682,-2.36102 6.47398,-4.5438 10.0353,-6.29229 3.39032,-1.29298 6.9149,-1.9819 10.50025,-2.5138 2.06472,-0.2603 4.12944,-0.52342 6.19416,-0.81059 2.13114,-0.29283 4.23967,-0.80068 6.327,-1.33117 1.94318,-0.49229 3.84679,-1.14868 5.73062,-1.82346 1.94742,-0.696 3.92452,-1.33117 5.86205,-2.06678 2.15799,-0.812 4.31174,-1.67493 6.37646,-2.71327 0.90446,-0.45269 1.79338,-0.93366 2.67099,-1.44152 1.60118,-0.92941 2.99179,-2.18278 4.27359,-3.50404 1.54465,-1.59147 2.8646,-3.44322 4.17325,-5.22142 1.53476,-2.09507 2.55086,-4.47166 3.41152,-6.90766 0.68117,-1.91117 -0.18231,-4.13073 -1.67185,-5.43219 0.79141,-0.63093 1.27897,-1.46981 1.63369,-2.45864 0.23742,-0.68043 0.4805,-1.3538 0.71792,-2.03424 0.50169,-1.39766 0.74477,-2.7458 0.88326,-4.23258 0.14274,-1.60279 -0.22046,-3.327227 -0.55822,-4.884739 -0.44093,-2.066781 -1.44149,-4.055756 -2.53956,-5.841024 -1.03166,-1.669269 -2.35161,-3.232439 -3.58818,-4.757415 -0.91153,-1.127463 -1.8386,-2.237951 -2.82079,-3.298927 -3.8256,-4.133561 -8.51891,-7.179268 -13.23766,-10.179707 -4.76398,-3.027317 -9.76679,-5.613268 -14.80069,-8.145464 -5.06782,-2.552 -10.1851,-4.995073 -15.51719,-6.945853 -5.15685,-1.889952 -10.57797,-2.96083 -15.92702,-4.137805 -2.71056,-0.602634 -5.42678,-1.176976 -8.14865,-1.730098 -2.94798,-0.596975 -5.95673,-0.895463 -8.94287,-1.232146 -1.93329,-0.222098 -3.92452,-0.30839 -5.89597,-0.30839 -0.72357,0 -1.44431,0.01132 -2.15799,0.03112" />
        <path
           style="fill:#4d4d4d;fill-rule:evenodd;stroke:none;stroke-width:1"
           inkscape:connector-curvature="0"
           id="Fill-9"
           d="m 299.41153,223.82356 c -0.006,0.0113 -0.017,0.0226 -0.0226,0.0325 0.006,-0.01 0.0113,-0.0212 0.0226,-0.0325 m 4.10683,-83.25405 c -2.38976,0.6578 -4.13933,3.38805 -3.31684,5.84668 1.83154,5.44351 3.79733,10.90259 6.40897,16.03063 1.14754,2.26059 2.46183,4.44337 3.6984,6.65869 1.303,2.34405 2.61164,4.68668 3.98529,6.98546 1.44149,2.41478 2.89852,4.81259 4.30609,7.24434 1.303,2.26059 2.36291,4.66405 3.41718,7.03922 0.45788,1.01712 0.88892,2.06254 1.42453,3.04005 0.66845,1.21517 1.40191,2.38224 2.14244,3.55356 1.36235,2.14883 2.67665,4.32029 3.79168,6.61342 0.30384,0.62526 0.59638,1.26043 0.88327,1.90126 l -0.24873,0.116 c -4.69756,1.84044 -9.59437,3.07259 -14.51239,4.13922 -2.31345,0.49795 -4.60993,1.06664 -6.91207,1.62966 -1.93753,0.464 -3.90333,0.8021 -5.87336,1.08927 -1.60683,0.18249 -3.22921,0.348 -4.80778,0.71298 -0.58084,0.13722 -1.14896,0.348 -1.70577,0.5517 -0.88326,0.32113 -1.75098,0.68044 -2.59467,1.08927 -1.12069,0.54181 -1.94318,1.55327 -2.65545,2.52512 -2.37987,3.23244 -1.84991,7.76917 -1.55737,11.53776 0.26003,3.38805 0.81119,6.70961 1.78914,9.95761 0.97088,3.22819 2.30214,6.36019 2.95929,9.67044 0.0593,0.80775 0.0763,1.59712 0.0382,2.40488 -0.18231,0.87848 -0.43669,1.72302 -0.74477,2.57463 -0.21057,0.43571 -0.43669,0.85585 -0.69107,1.26468 -0.64584,0.69176 -1.35245,1.29864 -2.09157,1.8843 -1.99264,1.50941 -4.03616,3.11219 -4.62124,5.69814 -0.43527,1.91117 -0.0382,3.8181 1.06557,5.4322 0.42538,0.62385 0.83946,1.2477 1.20972,1.90551 0.0707,0.2221 0.13143,0.44844 0.18231,0.67478 0.0381,0.58 0.0381,1.14868 0.004,1.72444 -0.13709,0.60122 -0.31374,1.19254 -0.513,1.7782 -0.19079,0.39892 -0.38581,0.79219 -0.58791,1.18263 0.51583,0.27302 1.03024,0.55736 1.53759,0.85727 2.74872,1.62117 5.30524,3.52809 7.73599,5.58639 0.75607,-1.4302 1.48671,-2.8703 2.04069,-4.40942 0.48615,-1.3538 0.76738,-2.71327 0.90588,-4.14487 0.1823,-1.87864 -0.006,-3.71342 -0.37027,-5.56376 -0.21057,-1.06098 -0.62323,-1.99039 -1.13199,-2.86322 0.27134,-0.20937 0.54126,-0.42015 0.81119,-0.63517 1.50791,-1.21093 2.76568,-2.72459 3.69417,-4.41508 1.51214,-2.75712 2.23571,-5.75897 2.48868,-8.86409 0.14415,-1.7683 -0.22612,-3.60873 -0.51865,-5.33742 -0.17665,-1.04541 -0.513,-2.04556 -0.8338,-3.05136 -0.61758,-1.93381 -1.29734,-3.84498 -1.89796,-5.78444 -0.59638,-1.89561 -1.02176,-3.8082 -1.34256,-5.75332 -0.26993,-2.32 -0.53985,-4.70224 -0.45224,-7.03356 0.6515,-0.20512 1.30865,-0.37063 1.987,-0.49229 2.55086,-0.31547 5.09608,-0.65781 7.60738,-1.19395 2.76567,-0.59698 5.49885,-1.30996 8.25887,-1.93381 2.70491,-0.60829 5.39286,-1.20527 8.05961,-1.95078 1.14754,-0.31971 2.28519,-0.696 3.41718,-1.08361 0.8338,-0.28151 1.6676,-0.56302 2.4901,-0.86151 1.98133,-0.72429 4.03475,-1.50234 5.7292,-2.77976 1.69022,-1.26468 3.04267,-2.85049 3.43979,-4.98375 0.2035,-1.10059 0.26992,-2.22664 -0.0339,-3.33288 -0.23177,-0.84454 -0.56246,-1.61834 -0.91577,-2.4261 -0.50734,-1.17697 -1.05991,-2.33132 -1.62803,-3.48 -1.11503,-2.26058 -2.37987,-4.41083 -3.72667,-6.53844 -0.66846,-1.04966 -1.3468,-2.088 -1.9983,-3.15463 -0.6953,-1.13312 -1.23091,-2.35395 -1.77783,-3.56488 -1.08677,-2.38649 -2.17495,-4.75176 -3.41718,-7.05619 -1.1871,-2.20966 -2.57206,-4.31605 -3.88636,-6.44791 -1.37507,-2.22805 -2.73741,-4.45468 -4.05171,-6.71527 -1.22527,-2.09931 -2.50141,-4.17175 -3.69841,-6.28239 -1.19841,-2.10497 -2.25267,-4.25522 -3.22356,-6.46487 -1.20406,-2.96225 -2.30779,-5.95137 -3.32955,-8.98576 -0.68965,-2.04415 -2.4901,-3.49273 -4.58167,-3.49273 -0.40842,0 -0.8338,0.0608 -1.25918,0.17683" />
        <path
           style="fill:#4d4d4d;fill-rule:evenodd;stroke:none;stroke-width:1"
           inkscape:connector-curvature="0"
           id="Fill-11"
           d="m 290.42287,308.3355 c -0.0452,0.0382 -0.0933,0.0778 -0.14839,0.116 0.0495,-0.0382 0.0975,-0.0778 0.14839,-0.116 m 0.6741,-0.72995 c -0.0721,0.10609 -0.15545,0.21078 -0.24307,0.3098 0.082,-0.10468 0.16535,-0.20371 0.24307,-0.3098 m 2.38411,-29.14288 c -0.78434,0.78512 -1.47964,2.11629 -1.35245,3.27063 0.30384,2.74156 0.72781,5.55952 0.61899,8.33361 -0.0113,0.0495 -0.0283,0.10469 -0.0396,0.1542 -0.8437,0.86292 -1.78349,1.61409 -2.68371,2.41478 -1.26342,1.12746 -1.97569,2.65244 -2.10288,4.32736 -0.082,1.12747 0.21057,2.26059 0.62465,3.29893 0.83945,2.12195 1.49519,4.26654 1.91915,6.50449 0.0297,0.42439 0.041,0.84453 0.0297,1.276 -0.0113,0.0439 -0.017,0.0877 -0.0297,0.13863 -0.0933,0.0495 -0.18654,0.099 -0.28547,0.14854 -1.20972,0.40883 -2.46183,0.66912 -3.68286,1.07229 -1.58281,0.52483 -3.15149,1.07795 -4.74136,1.58015 -1.3355,0.4258 -2.68371,0.79644 -4.05171,1.08361 -1.39061,0.28717 -2.79818,0.58566 -4.20717,0.82331 -2.09722,0.20937 -4.20575,0.20371 -6.31993,0.20937 -2.57772,0 -5.11728,-0.1938 -7.68511,-0.45834 -2.60033,-0.26595 -5.20631,-0.43146 -7.8123,-0.55878 -2.57206,-0.1259 -5.12717,-0.33668 -7.695,-0.54605 -2.4901,-0.20512 -4.99009,-0.3381 -7.49149,-0.40883 -1.37931,-0.0453 -2.80384,0.01 -4.16194,0.30839 -0.91012,0.20512 -1.81034,0.44278 -2.71057,0.66912 -1.1758,0.29849 -2.34595,0.53615 -3.54436,0.71864 -2.19191,0.32536 -3.99094,1.49668 -5.6854,2.84624 -0.98219,0.77805 -1.89372,1.64098 -2.73317,2.56898 -0.61758,0.68468 -1.25777,1.43726 -1.76653,2.19975 -0.5455,0.82332 -0.98784,1.65795 -1.40757,2.552 -0.67269,1.40898 -1.26342,2.87454 -1.77218,4.35566 -0.77869,2.28181 -1.42877,4.59615 -2.13538,6.90059 -0.59497,1.9437 -1.17721,3.89024 -1.74109,5.84244 -0.0212,1.16848 0.0297,2.33414 -0.004,3.50829 -0.10458,3.5861 -0.4918,7.23302 -1.44573,10.68615 -0.14415,0.52058 -0.35896,1.01146 -0.4593,1.54195 -0.29253,1.60278 -0.62323,3.20556 -0.92707,4.814 -0.41973,3.85063 -0.84935,7.70268 -1.60542,11.5038 -0.24308,1.23356 -0.49746,2.45439 -0.74618,3.68088 -0.41973,6.11688 -0.20351,12.17434 0.342,18.30254 1.3581,7.83565 3.25182,15.57653 5.51581,23.20848 0.60486,2.04556 1.25352,4.07415 1.87958,6.10698 1.42877,0.68044 3.21509,0.65497 4.59015,-0.14995 1.07122,-0.62527 1.87676,-1.66927 2.20746,-2.86888 0.36461,-1.32551 0.089,-2.50249 -0.48474,-3.7021 -0.56388,-1.17132 -1.21537,-2.32 -1.89937,-3.4319 -0.52996,-0.86151 -0.97795,-1.76264 -1.39203,-2.68498 -0.93838,-2.45297 -1.63934,-5.00073 -2.14668,-7.57112 -0.54127,-2.784 -1.0048,-5.59205 -1.41888,-8.39868 -0.42538,-3.4701 -0.59638,-6.94585 -0.60768,-10.43859 -0.0155,-3.52527 0.14414,-7.05619 0.53561,-10.55458 0.51441,-3.40927 1.22102,-6.79732 1.98699,-10.15142 0.90022,-3.87326 2.15375,-7.63053 3.38467,-11.41043 1.28603,-3.93976 2.30779,-7.95732 3.47229,-11.93103 1.14895,-3.90581 2.1806,-7.8682 3.59382,-11.68629 0.43104,-0.97327 0.89457,-1.91259 1.49095,-2.79673 0.74477,-0.87283 1.54042,-1.69615 2.40672,-2.45298 0.24308,-0.16693 0.49039,-0.32112 0.74477,-0.46966 0.95534,-0.24897 1.95449,-0.3381 2.92113,-0.55878 1.35246,-0.30414 2.6823,-0.71863 4.03476,-0.98317 1.36941,-0.0665 2.75437,0.0113 4.12378,0.0764 1.39061,0.0608 2.77699,0.14429 4.16194,0.24898 2.44629,0.18248 4.88552,0.42014 7.33181,0.5418 2.66109,0.13863 5.32078,0.2702 7.97623,0.51917 2.50705,0.232 5.01411,0.54181 7.53672,0.54746 2.3841,0 4.79082,0.0552 7.16504,-0.18248 2.51695,-0.25464 4.99998,-0.76249 7.46323,-1.32551 1.94742,-0.44844 3.85386,-1.11757 5.73627,-1.7683 0.93838,-0.32112 1.86404,-0.68609 2.7996,-1.01712 0.97653,-0.348 1.97992,-0.60263 2.97483,-0.89546 2.13679,-0.62386 4.43328,-1.7683 5.82955,-3.53093 0.71791,-0.90112 1.14329,-1.56883 1.5291,-2.66376 0.38581,-1.08361 0.5017,-2.17146 0.6402,-3.30458 0.18795,-1.46415 -0.16535,-3.01742 -0.43104,-4.44761 -0.23742,-1.30995 -0.62888,-2.59161 -1.0373,-3.85771 -0.20916,-0.66346 -0.5017,-1.30995 -0.77869,-1.9621 0.25438,-0.22634 0.50169,-0.44702 0.74618,-0.67336 1.21961,-1.12181 2.21876,-2.40347 2.79253,-3.97371 0.49039,-1.34249 0.64019,-2.7458 0.65715,-4.17175 0.0156,-2.53644 -0.37027,-5.11108 -0.64584,-7.6263 -0.13991,-1.276 -0.41408,-2.33131 -1.35246,-3.27063 -0.8663,-0.86293 -2.04917,-1.35381 -3.26878,-1.35381 -1.22527,0 -2.40814,0.49088 -3.27303,1.35381" />
        <path
           d="m 81.250538,156.62191 c 0.4992,-2.24002 1.179928,-4.41931 1.872,-6.60425 1.318909,-4.16508 2.659091,-8.32451 3.939709,-12.50654 1.3728,-4.49699 2.581091,-9.0533 3.827673,-13.58843 0.350291,-1.27395 0.704836,-2.5465 1.0608,-3.81764 0.527564,0.685 1.059382,1.37 1.592618,2.05218 2.4492,3.12275 4.914,6.23421 7.422762,9.30753 5.29833,6.48843 10.764,12.8328 16.10487,19.28451 0.64811,0.88979 1.29622,1.77676 1.94433,2.66656 0.72611,0.98866 1.51746,1.95331 2.16557,2.9914 1.61956,2.59594 3.24905,5.15657 4.69276,7.83442 -3.45327,0.12712 -6.942,-0.20055 -10.36549,-0.50845 -4.51266,-0.41524 -9.00546,-0.92934 -13.50109,-1.49429 -3.867385,-0.57342 -7.730512,-1.17227 -11.593639,-1.81066 -1.850727,-0.30366 -3.700037,-0.62851 -5.550764,-0.94346 -1.337345,-0.2274 -2.705891,-0.42372 -4.058836,-0.6737 0.136145,-0.73303 0.283636,-1.46322 0.446727,-2.18918 m 3.263237,-49.83551 c -3.417819,11.45856 -6.315164,23.06684 -9.888982,34.47597 -0.869346,2.76966 -1.734437,5.53367 -2.564073,8.30898 -0.897709,2.97869 -1.374218,6.03506 -1.789746,9.10838 -0.133309,0.9929 -0.243927,1.9858 -0.343199,2.9787 -0.161673,1.55643 0.392836,3.5973 1.611054,4.64528 0.604146,0.51976 1.196946,1.0268 1.917382,1.37989 1.080654,0.53529 2.188254,0.85025 3.356836,1.11436 3.063273,0.69489 6.171928,1.20899 9.256473,1.78806 11.612073,2.17364 23.31207,3.96029 35.10567,4.77806 3.03633,0.20338 6.23291,0.15394 9.21251,-0.49151 1.36287,-0.29801 2.66476,-0.80081 3.8844,-1.47875 1.50611,-0.8446 3.24622,-2.54933 3.63338,-4.26536 0.0553,-0.23163 0.10495,-0.46891 0.16168,-0.70054 0.25952,-0.959 0.25952,-1.91941 0,-2.88547 -0.13331,-0.84319 -0.38291,-1.54938 -0.69349,-2.35019 -0.83106,-2.14539 -1.94433,-4.18768 -3.07462,-6.18477 -3.12993,-5.55486 -6.9576,-10.73544 -11.01218,-15.64625 -3.48022,-4.20887 -7.04128,-8.34711 -10.54277,-12.54044 -3.19942,-3.82612 -6.29673,-7.73273 -9.38694,-11.64641 -1.17142,-1.51266 -2.33575,-3.03095 -3.475967,-4.56196 -1.416764,-1.89964 -2.893091,-3.7781 -4.203491,-5.74694 -0.260946,-0.62145 -0.633927,-1.17792 -1.126037,-1.66801 -0.290727,-0.29095 -0.612654,-0.54235 -0.958691,-0.75421 -0.653781,-0.66805 -1.477745,-1.17509 -2.40949,-1.43073 -0.473673,-0.12853 -0.947346,-0.19067 -1.41251,-0.19067 -2.383963,0 -4.553781,1.60587 -5.257199,3.96453"
           id="Fill-14"
           inkscape:connector-curvature="0"
           style="fill:#4d4d4d" />
        <path
           d="m 156.2396,81.811154 c 0.76723,0.156773 1.50894,0.35733 2.25349,0.610144 0.88778,0.446309 1.72309,0.951938 2.53996,1.518299 1.092,0.930752 2.07622,1.937773 3.00938,3.029536 1.24091,1.720268 2.28753,3.529516 3.17531,5.458814 0.75589,1.980145 1.31324,3.994186 1.67346,6.078846 0.1489,1.764047 0.14323,3.498447 -0.0213,5.252607 -0.4212,2.31629 -1.0835,4.51959 -1.94717,6.70029 -1.81669,4.00831 -4.13116,7.78217 -6.75905,11.31592 -1.23524,1.51123 -2.52578,2.91654 -4.00069,4.2018 -1.1232,0.78246 -2.28753,1.44345 -3.52986,2.02958 -1.37563,0.50563 -2.77254,0.90109 -4.21058,1.17227 -0.68498,0.0325 -1.35578,0.0212 -2.03084,-0.0282 -0.69065,-0.16101 -1.35011,-0.35733 -2.00672,-0.5932 -1.55575,-0.7655 -2.98528,-1.67225 -4.38644,-2.68915 -1.93582,-1.56915 -3.71564,-3.28377 -5.31676,-5.19047 -1.28629,-1.79936 -2.36269,-3.6764 -3.276,-5.68479 -1.3884,-3.5507 -2.37546,-7.2158 -2.99379,-10.97412 -0.2581,-2.35301 -0.34887,-4.689077 -0.14181,-7.053386 0.312,-1.809248 0.77858,-3.549289 1.42527,-5.270969 0.75447,-1.584681 1.64509,-3.07332 2.67753,-4.495578 0.64952,-0.783866 1.32316,-1.545134 2.01949,-2.279567 0.40985,0.868609 1.07356,1.627052 1.96134,2.14398 2.32015,1.351639 5.45575,0.563536 6.79735,-1.776763 0.14324,-0.248577 0.29073,-0.495742 0.44247,-0.73867 0.0553,-0.05649 0.1092,-0.111578 0.16593,-0.16666 0.34036,-0.204794 0.6864,-0.38699 1.04378,-0.560711 2.65342,-0.954763 5.50396,-1.508413 8.30487,-1.934949 1.05229,-0.09039 2.08048,-0.127113 3.13135,-0.07485 M 134.64211,69.993844 c -2.34426,1.290908 -4.4772,2.758361 -6.50379,4.519588 -2.06203,1.792299 -3.82341,3.977237 -5.44581,6.162175 -2.36553,3.183485 -4.07728,6.790681 -5.14091,10.609732 -0.53749,1.930712 -0.75873,3.960289 -0.97004,5.946083 -0.24393,2.262618 -0.061,4.546418 0.1716,6.797738 0.43254,4.12695 1.36287,8.17622 2.68745,12.10402 1.30757,3.87273 3.09022,7.58585 5.53942,10.86961 2.41517,3.25411 5.30117,5.98563 8.54171,8.4135 1.49618,1.12001 3.00938,2.13974 4.68142,2.98999 0.95869,0.48585 1.97269,0.86578 2.964,1.27396 1.30756,0.54093 2.67611,0.72878 4.06593,0.90533 3.78938,0.49009 7.61138,-0.31496 11.12421,-1.72733 1.99964,-0.80506 3.87164,-1.72733 5.64011,-2.95751 1.89895,-1.32904 3.5951,-2.89112 5.11255,-4.62834 2.52578,-2.89112 4.70269,-6.10144 6.66404,-9.38944 2.19392,-3.67499 4.02196,-7.65788 5.23025,-11.75799 1.15157,-3.89956 1.48484,-8.10419 1.014,-12.130858 -0.23825,-1.998505 -0.62116,-3.934866 -1.17993,-5.865577 -0.61549,-2.112908 -1.55149,-4.165083 -2.52152,-6.13534 -1.63942,-3.343083 -4.06593,-6.410753 -6.79168,-8.943135 -3.11291,-2.889711 -7.05687,-4.948948 -11.28447,-5.53367 -1.55716,-0.21468 -2.96967,-0.237278 -4.53109,-0.104515 -1.39124,0.115814 -2.80374,0.353093 -4.16095,0.668051 -1.04661,0.242928 -2.09323,0.480207 -3.1356,0.74997 -1.09058,0.282474 -2.15138,0.608732 -3.198,0.978773 -0.11912,-0.597433 -0.33894,-1.187804 -0.66796,-1.75134 -1.07924,-1.831846 -3.00796,-2.810619 -4.992,-2.810619 -0.99131,0 -1.99538,0.24434 -2.91294,0.747144"
           id="Fill-16"
           inkscape:connector-curvature="0"
           style="fill:#4d4d4d" />
        <path
           d="m 173.23296,156.92811 c -0.0624,0.008 -0.1248,0.0184 -0.18862,0.0254 0.0624,-0.008 0.12622,-0.017 0.18862,-0.0254 z m 1.53164,-0.0339 c 0.2028,0.0268 0.40418,0.0537 0.60698,0.0805 -0.20422,-0.0155 -0.40702,-0.0438 -0.60698,-0.0805 z m 38.65254,-35.02115 c -0.1092,0.0946 -0.22549,0.1836 -0.34745,0.26694 0.11629,-0.089 0.23116,-0.17796 0.34745,-0.26694 z m -0.12764,-0.041 c -0.10352,0.048 -0.20705,0.0918 -0.31483,0.13135 0.10494,-0.0438 0.20989,-0.0876 0.31483,-0.13135 z m 0.77717,-0.67935 c -0.0766,0.11016 -0.156,0.21327 -0.24251,0.31354 0.001,-0.001 0.001,-0.001 0.001,-0.001 0.0794,-0.10451 0.16025,-0.20762 0.24109,-0.31213 z m -9.55571,-14.50082 c -0.0142,0.10734 -0.0298,0.21468 -0.0454,0.32202 0.0156,-0.10734 0.0298,-0.21468 0.0454,-0.32202 z m 2.73567,-9.975575 c 10e-4,0 10e-4,0 10e-4,0 -0.006,0.0028 -0.0113,0.0056 -0.017,0.0085 z m 0.14324,-0.06921 c 0.004,0.0014 0.007,0.0028 0.0113,0.0042 -0.004,-0.0014 -0.009,-0.0028 -0.0113,-0.0028 z m 1.20829,-0.320609 c -0.0851,0.0113 -0.17018,0.0226 -0.25527,0.03249 0.0837,-0.01271 0.16876,-0.02401 0.25527,-0.03249 z m -2.68036,-9.681804 c -1.14731,0.159598 -2.17124,0.612969 -3.18524,1.163794 -1.03102,0.563536 -1.9344,1.461804 -2.73142,2.306402 -1.13029,1.207577 -2.01098,2.68633 -2.74844,4.153784 -2.20385,4.392474 -3.05192,9.407808 -3.48872,14.256478 -0.36164,3.93627 -0.74738,7.87255 -1.14873,11.80883 -0.89487,5.81897 -2.35276,11.48258 -4.5552,16.94987 -2.01665,4.5676 -4.49847,8.9516 -7.47098,12.97263 -1.73444,2.14539 -3.61495,4.10435 -5.74505,5.85851 -0.27513,0.19632 -0.54884,0.38417 -0.83106,0.56212 -0.19996,-0.11016 -0.39567,-0.22739 -0.5928,-0.35168 -0.62542,-0.55506 -1.19978,-1.1426 -1.74578,-1.77817 -1.38698,-1.99709 -2.47756,-4.14955 -3.45895,-6.36838 -1.94291,-4.82325 -3.5568,-9.78209 -5.58054,-14.5785 -1.12462,-2.66514 -2.27618,-5.30769 -3.49582,-7.93329 -0.80836,-1.73863 -1.64367,-3.45889 -2.4492,-5.19611 -0.80269,-2.1581 -1.47916,-4.30491 -1.92731,-6.56046 -0.18011,-2.48436 -0.0284,-4.94471 0.18153,-7.42343 0.54458,-1.89964 0.0468,-4.01819 -1.39975,-5.45457 -1.03527,-1.036683 -2.45912,-1.621405 -3.92127,-1.621405 -1.5912,0 -2.73709,0.656755 -3.92836,1.621405 -1.4508,1.1765 -1.78408,3.10156 -2.00531,4.83313 -0.0837,0.64545 -0.13898,1.29091 -0.18295,1.93636 -0.0936,1.39119 -0.12763,2.78096 -0.12196,4.17215 0,3.2654 0.79276,6.42628 1.75145,9.52785 0.97997,3.18349 2.60237,6.21726 4.06026,9.20725 1.09483,2.25273 2.09749,4.53795 3.07887,6.83446 0.82538,2.14539 1.65644,4.28372 2.46054,6.43477 1.73444,4.65658 3.43484,9.33436 5.77201,13.73672 1.61247,3.04648 3.9553,5.89806 6.79734,7.8782 1.31324,0.91663 2.74844,1.53949 4.27724,2.01404 0.27654,0.0438 0.54883,0.089 0.81971,0.12712 0.70341,0.17655 1.4125,0.23728 2.12727,0.18219 0.90338,-0.0226 1.88334,-0.23727 2.75269,-0.5028 1.35295,-0.40253 2.47756,-1.16944 3.60218,-1.9745 1.42244,-1.02679 2.75837,-2.17363 4.03757,-3.37133 2.51018,-2.35018 4.60908,-5.20741 6.55341,-8.0265 1.93866,-2.80921 3.45753,-5.83168 5.03029,-8.84992 0.73746,-1.42367 1.31324,-2.9575 1.92873,-4.43061 0.66938,-1.60445 1.24091,-3.2428 1.77698,-4.8981 1.05939,-3.25551 1.81244,-6.60425 2.39389,-9.97558 1.12178,-6.53645 1.23098,-13.16188 1.98688,-19.73506 0.37298,-2.41657 0.91756,-4.76958 1.78123,-7.060441 0.37157,-0.748557 0.77717,-1.460392 1.23807,-2.152454 0.3276,0.204794 0.64953,0.41665 0.97146,0.63698 1.24374,1.016907 2.40524,2.081835 3.46178,3.300715 0.61407,0.88555 1.14164,1.78523 1.6068,2.75271 0.66655,1.86715 1.10618,3.76962 1.4352,5.72151 0.23967,2.22872 0.24393,4.44332 0.017,6.67769 -0.26946,1.76688 -0.6084,3.54082 -1.20546,5.22436 -0.0794,0.14689 -0.1645,0.29236 -0.25385,0.43501 l -0.0752,0.041 c -0.12055,0.0466 -0.24109,0.0946 -0.36164,0.14124 -1.18418,0.46467 -2.12727,1.00985 -2.79098,2.14116 -0.63251,1.07622 -0.80411,2.38408 -0.47084,3.58601 0.32051,1.15814 1.10193,2.16799 2.14287,2.78095 0.98706,0.57343 2.49317,0.89969 3.60077,0.46891 0.83105,-0.32626 1.65643,-0.65675 2.47189,-1.01549 0.96862,-0.43078 1.83938,-1.26266 2.51444,-2.05783 1.82803,-2.1242 2.56549,-4.7498 3.12992,-7.42624 0.5148,-2.43776 0.83106,-4.91506 0.89771,-7.4093 0.078,-2.70328 -0.3432,-5.42916 -0.84807,-8.07735 -0.47084,-2.48154 -1.31749,-4.79924 -2.40382,-7.071746 -0.4992,-1.053629 -1.22389,-2.008392 -1.93865,-2.93067 -0.88637,-1.141196 -1.80677,-2.206124 -2.84771,-3.20467 -0.91898,-0.882732 -1.93866,-1.687784 -2.95833,-2.450464 -1.2636,-0.942052 -2.56549,-1.902464 -4.10989,-2.354423 -0.58713,-0.204794 -1.20262,-0.309309 -1.82804,-0.326258 -0.22832,-0.04237 -0.45523,-0.06356 -0.68072,-0.06356 -0.39142,0 -0.78142,0.06356 -1.17,0.18502 z"
           id="Fill-18"
           inkscape:connector-curvature="0"
           style="fill:#4d4d4d" />
        <path
           d="m 104.74683,185.38598 c 0.0525,0.12429 0.10495,0.24716 0.15742,0.37004 -0.0624,-0.1144 -0.11345,-0.23022 -0.15742,-0.35027 0,-0.006 0,-0.0127 0,-0.0198 m -0.15883,-0.68924 c 0.004,0.0282 0.009,0.0565 0.0114,0.0847 0,-0.001 -0.001,-0.001 -0.003,-0.003 -0.003,-0.0268 -0.006,-0.0551 -0.008,-0.0819 m 0.2496,-0.16101 c -0.017,0.12994 -0.034,0.25847 -0.0525,0.38699 -0.001,-0.001 -0.003,-0.003 -0.006,-0.004 0.0156,-0.12711 0.034,-0.25422 0.0581,-0.38275 m 2.01665,-6.06754 c 0.94735,-2.63266 1.84506,-5.26391 2.65909,-7.94036 0.74738,-2.47588 1.17993,-5.06335 1.73869,-7.58584 0.58713,-2.65526 1.29338,-5.27662 2.24215,-7.82878 1.09909,0.007 2.1996,0.0819 3.29869,0.12147 1.48484,0.0551 2.97393,0.0833 4.45876,0.12711 2.75269,0.0847 5.50822,0.30931 8.24531,0.64122 3.64189,0.52964 7.22138,1.32198 10.73989,2.40386 2.52011,0.77821 5.03597,1.55643 7.53906,2.37843 0.0837,0.0282 0.16876,0.0523 0.25385,0.0734 -0.0893,0.21892 -0.18011,0.43642 -0.26945,0.65534 -0.38291,0.92651 -0.75448,1.85868 -1.12462,2.79649 -0.77575,1.99145 -1.33026,4.02244 -1.78975,6.10145 -0.45949,2.06912 -0.73745,4.18203 -1.03669,6.28505 -0.59138,4.0874 -1.57843,8.02792 -3.08312,11.87946 -0.73179,1.61434 -1.56,3.16936 -2.56833,4.6241 -0.19004,0.21044 -0.38433,0.411 -0.58855,0.60449 -0.10636,0.0311 -0.21131,0.0636 -0.31909,0.0918 -0.55167,0.0198 -1.09767,0.0127 -1.65076,-0.0282 -3.96949,-0.66664 -7.87091,-1.65106 -11.81062,-2.49142 -2.28753,-0.48586 -4.59207,-0.88839 -6.8796,-1.37848 -2.34284,-0.50139 -4.6488,-1.33751 -6.86684,-2.23861 -1.80534,-0.80787 -3.57381,-1.69767 -5.2104,-2.80638 0.46659,-2.21601 1.24942,-4.35999 2.02233,-6.4856 m 2.92429,-32.7995 c -0.21556,0.0833 -0.43113,0.17089 -0.64811,0.25422 -0.84098,0.23728 -1.57276,0.66099 -2.19392,1.27396 -0.71902,0.63416 -1.25651,1.34034 -1.78833,2.12986 -0.39426,0.57907 -0.65378,1.29656 -0.92607,1.93636 -0.31484,0.73302 -0.63677,1.46745 -0.90197,2.21742 -0.95302,2.68209 -1.69614,5.38537 -2.36552,8.14938 -0.67081,2.75836 -1.324587,5.49413 -2.176915,8.20306 -0.770072,2.45046 -1.728763,4.83878 -2.532872,7.27795 -0.398509,1.21887 -0.770073,2.43775 -1.084909,3.67922 -0.161673,0.61297 -0.277964,1.23018 -0.38291,1.8488 -0.326181,1.93636 -0.531818,3.97723 0.2496,5.83168 0.470837,1.10871 0.81971,1.85303 1.639419,2.75836 0.697745,0.76691 1.423854,1.35729 2.254909,1.98014 1.290548,0.96606 2.681778,1.76547 4.111308,2.50979 2.43076,1.26972 5.0076,2.23437 7.57735,3.18348 2.59243,0.95476 5.31818,1.52254 8.01131,2.09172 5.00192,1.06493 9.94287,2.41657 15.01854,3.10581 1.94433,0.26552 3.86596,0.40817 5.79895,-0.0325 1.33025,-0.30931 2.61512,-0.8333 3.76811,-1.56208 1.62807,-1.03103 2.75836,-2.50414 3.89432,-4.02243 1.23524,-1.65389 2.13862,-3.58036 2.95833,-5.46164 1.45647,-3.33744 2.56975,-6.75255 3.33982,-10.30607 0.27654,-1.29091 0.45949,-2.60866 0.6708,-3.91086 0.40985,-2.57052 0.80836,-5.16928 1.57276,-7.66918 0.73746,-2.38267 1.75571,-4.63964 2.65909,-6.96299 0.19146,-0.49857 0.38433,-0.99996 0.57578,-1.49994 0.0922,-0.2175 0.18437,-0.43501 0.27797,-0.6511 0.2496,-0.92652 0.2496,-1.85303 0,-2.78096 -0.36589,-1.30644 -1.24091,-2.4434 -2.41517,-3.1284 -0.84523,-0.49151 -1.81952,-0.73443 -2.79098,-0.71042 -0.27229,-1.86575 -1.66352,-3.43207 -3.56389,-4.05633 -3.40647,-1.11436 -6.82996,-2.26686 -10.30309,-3.18208 -5.05865,-1.33045 -10.36549,-2.15245 -15.6,-2.42221 -2.75411,-0.13841 -5.50113,-0.21609 -8.25523,-0.32061 -0.71477,-0.0268 -1.42953,-0.0607 -2.1443,-0.0932 -0.28647,-0.0141 -0.57152,-0.0212 -0.85516,-0.0212 -1.16007,0 -2.29036,0.11864 -3.44902,0.36298"
           id="Fill-20"
           inkscape:connector-curvature="0"
           style="fill:#4d4d4d" />
      </g>
    </g>
  </g>
</svg>
