<?xml version="1.0" encoding="UTF-8" standalone="no"?>
<svg
   xmlns:dc="http://purl.org/dc/elements/1.1/"
   xmlns:cc="http://creativecommons.org/ns#"
   xmlns:rdf="http://www.w3.org/1999/02/22-rdf-syntax-ns#"
   xmlns:svg="http://www.w3.org/2000/svg"
   xmlns="http://www.w3.org/2000/svg"
   xmlns:sodipodi="http://sodipodi.sourceforge.net/DTD/sodipodi-0.dtd"
   xmlns:inkscape="http://www.inkscape.org/namespaces/inkscape"
   viewBox="0 0 52 52"
   version="1.1"
   id="svg11"
   sodipodi:docname="email.svg"
   inkscape:version="0.92.2 5c3e80d, 2017-08-06">
  <metadata
     id="metadata17">
    <rdf:RDF>
      <cc:Work
         rdf:about="">
        <dc:format>image/svg+xml</dc:format>
        <dc:type
           rdf:resource="http://purl.org/dc/dcmitype/StillImage" />
      </cc:Work>
    </rdf:RDF>
  </metadata>
  <defs
     id="defs15" />
  <sodipodi:namedview
     pagecolor="#ffffff"
     bordercolor="#666666"
     borderopacity="1"
     objecttolerance="10"
     gridtolerance="10"
     guidetolerance="10"
     inkscape:pageopacity="0"
     inkscape:pageshadow="2"
     inkscape:window-width="740"
     inkscape:window-height="480"
     id="namedview13"
     showgrid="false"
     inkscape:zoom="4.5384615"
     inkscape:cx="26"
     inkscape:cy="26"
     inkscape:window-x="0"
     inkscape:window-y="0"
     inkscape:window-maximized="0"
     inkscape:current-layer="g45" />
  <g
     id="g45">
    <g
       id="g832">
      <path
         class="st0"
         d="m 2.2527218,10.746948 c 16.0414162,0.05649 32.0828322,0.112989 48.1242522,0.169483 -0.375,-0.375 -0.75,-0.75 -1.125,-1.1249996 0.0423,6.3654346 0.06157,12.7309366 0.04919,19.0965116 -0.0056,2.903021 0.58474,6.70134 -0.04016,9.548226 -0.0044,0.636539 -0.0088,1.273079 -0.01321,1.909618 -1.119133,0.482433 -2.272411,0.68626 -3.459835,0.611477 -1.610344,0.129555 -3.320606,0.0084 -4.930454,0.0124 -13.147879,0.03308 -26.295755,0.06616 -39.4436316,0.09923 0.375,0.375 0.75,0.75 1.125,1.125 C 2.4909606,36.799076 2.4588287,31.404184 2.4492335,26.009151 2.4468536,24.670923 2.0695154,10.797098 2.2155144,10.757649 3.6118293,10.380368 3.0192807,8.2092294 1.6173752,8.5880222 1.4306598,8.6384725 1.2439444,8.6889219 1.057229,8.7393722 0.5783526,8.8687639 0.233921,9.3315611 0.2312986,9.8241863 0.1738614,20.614245 0.1930513,31.404116 0.2888684,42.193897 c 0.00539,0.606972 0.5110526,1.126545 1.125,1.125 7.8887258,-0.01984 15.7774526,-0.03969 23.6661776,-0.05954 3.944363,-0.0099 7.888727,-0.01984 11.83309,-0.02977 3.742618,-0.0094 8.332611,0.652352 11.982624,-0.04986 4.158924,-0.800126 2.626976,-6.302536 2.640499,-9.517647 0.03347,-7.956934 0.01859,-15.913836 -0.03429,-23.8706476 -0.0041,-0.6097136 -0.512177,-1.1228418 -1.125,-1.125 C 34.335556,8.6099367 18.294138,8.553443 2.2527218,8.4969482 c -1.4479695,-0.0051 -1.4499273,2.2448938 0,2.2499998 z"
         id="path4"
         style="fill:#ececec"
         inkscape:connector-curvature="0" />
      <path
         class="st0"
         d="m 1.3131428,11.897137 c 4.4914384,3.279489 9.4074592,6.34655 13.4900752,10.128976 3.333485,3.088378 5.958089,6.788561 9.539817,9.627463 0.490204,0.388538 1.103189,0.453632 1.59099,0 3.619511,-3.365967 7.24834,-6.721796 10.891212,-10.062477 3.777684,-3.464308 7.510723,-7.676632 11.876519,-10.391048 0.92514,-0.575204 0.577236,-2.1136615 -0.567811,-2.0964047 -15.417663,0.2323618 -30.835329,0.4647236 -46.2529931,0.6970854 -1.446499,0.021801 -1.4507797,2.2718653 0,2.2500003 C 17.298616,11.81837 32.716283,11.586008 48.133946,11.353646 47.944676,10.654845 47.755406,9.9560433 47.566136,9.2572422 43.546922,11.756173 40.169965,15.481527 36.692052,18.66457 c -4.132351,3.781996 -8.246905,7.583254 -12.349016,11.398016 0.53033,0 1.060659,0 1.59099,0 C 21.953965,26.907963 19.09887,22.673197 15.231281,19.407539 11.200218,16.003847 6.7068595,13.063439 2.4487619,9.9543276 1.2779635,9.099453 0.1541113,11.050853 1.3131428,11.897137 Z"
         id="path8"
         style="fill:#ececec"
         inkscape:connector-curvature="0" />
      <path
         class="st0"
         d="m 31.893711,25.557362 c 6.356323,4.4111 11.572502,10.494083 17.008686,15.953895 1.02306,1.027504 2.6143,-0.563236 1.590992,-1.590988 -5.588253,-5.612541 -10.928009,-11.76989 -17.464058,-16.305716 -1.192354,-0.827457 -2.318403,1.121991 -1.13562,1.942809 z"
         id="path12"
         style="fill:#ececec"
         inkscape:connector-curvature="0" />
      <path
         class="st0"
         d="m 17.800157,23.957113 c -5.339381,5.21537 -10.6787609,10.430742 -16.018142,15.646113 -1.0376103,1.013508 0.5539724,2.60392 1.5909902,1.590988 5.3393812,-5.21537 10.6787628,-10.43074 16.0181428,-15.646111 1.037611,-1.013511 -0.553973,-2.603924 -1.590991,-1.59099 z"
         id="path16"
         style="fill:#ececec"
         inkscape:connector-curvature="0" />
    </g>
  </g>
</svg>
