<svg height="200.78966" viewBox="0 0 151.6743 200.78966" width="151.6743" xmlns="http://www.w3.org/2000/svg"><g transform="translate(-24.556872 -.000047)"><path d="m83.787 97.689c-6.165-4.892-33.436-11.621-27.74-23.522.491-1.026-.879-1.834-1.525-.892-4.465 6.51-.326 12.881 5.866 16.441 7.073 4.067 20.452 4.547 24.773 12.671 6.476 12.176-4.377 32.637-18.038 35.035-.948.166-.741 1.814.23 1.698 11.747-1.407 21.576-15.549 23.592-26.586 1.272-6.967-1.75-10.554-7.158-14.845z"/><path d="m125.368 7.265c1.941-2.069 1.004-5.756-1.727-6.854-3.628-1.459-6.698 1.195-7.983 4.373-4.389-.788-8.99-1.23-13.85-1.203-.746.004-1.124.571-1.149 1.152-1.826 1.027-1.571 5.01-.527 6.427.203.275.489.368.778.388.124.104.272.187.458.225 3.7.745 7.203 1.745 10.614 2.858-1.618 3.992-3.34 7.879-5.466 11.633-1.931-.428-3.897-.805-5.946-1.062-31.338-3.929-64.733 13.773-73.069 44.347-.13-.01-.261-.017-.391-.027-.423-.033-.407.602 0 .651.064.007.127.017.191.025-.596 2.299-1.082 4.652-1.384 7.09-.194 1.57-.327 3.15-.413 4.736-.13-.009-.265-.014-.394-.024-.741-.059-.734 1.091 0 1.153.119.01.241.026.361.037-.177 4.637.062 9.318.716 13.961-.738.255-.689 1.465.225 1.51 3.856 24.067 18.714 46.68 41.561 54.861-.41.953-.765 1.94-1.185 2.845-.896 1.932-1.896 3.798-2.975 5.633-3.01-.807-6.013-1.72-9-2.745-.533-.183-.854.173-.914.594-2.256.849-3.903 3.648-2.379 5.845.484.697 1.891.55 1.784-.483-.162-1.564.028-3.234 1.781-3.767.169-.051.233-.171.335-.267 49.671 19.923 104.973 3.117 112.991-54.322 6.34-45.415-17.952-91.22-66.65-97.461-.071-.718-.048-1.435.268-2.119.228-.495.457-.853.59-1.273 57.448-.066 79.837 63.642 67.486 111.824-12.994 50.693-62.723 68.631-108.453 51.998-.123-.341-.539-.497-.875-.335-2.526-.944-5.042-1.969-7.535-3.125-.855-.396-1.587.784-.751 1.284 2.311 1.382 4.709 2.596 7.149 3.714-1.81 3.325-3.423 6.794-4.838 10.292-3.942-.26-8.204.936-11.057 3.631-2.622 2.477-4.617 7.061-2.363 10.367.418.614 1.473.452 1.518-.344 4.183 6.014 13.349 4.707 20.427 5.006 20.088.848 40.217.532 60.282-.707.583-.036.954-.378 1.141-.8 5.941-2.306 7.256-10.191 2.511-14.71-.4-.381-.853-.448-1.267-.351-.103-.036-.157-.128-.282-.134-21.227-1.007-42.309 1.604-63.48-.967 1.798-2.669 3.395-5.493 5.001-8.285 20.029 6.745 42.886 5.666 62.586-1.729 23.272-8.737 37.025-30.851 42.987-54.062 11.154-43.425-5.005-97-47.438-111.304zm-58.584 141.967c5.08.263 10.033 1.115 15.031 2.015.626.113.898-.787.267-.968-4.984-1.426-10.16-1.943-15.329-2.11-.498-.016-.62.531-.393.845-3.111-1.613-6.114-3.339-8.905-5.271 7.444 1.491 14.98 2.594 22.509 3.532.506.063.625-.803.121-.895-7.902-1.445-15.871-2.746-23.868-3.551-.032-.003-.049.021-.077.026-3.811-2.759-7.266-5.845-10.374-9.208 4.063.889 8.128 1.781 12.228 2.468.739.124 1.073-.958.316-1.148-4.653-1.169-9.374-2.068-14.08-3.012-1.604-1.86-3.062-3.831-4.443-5.858 3.67.579 7.413.928 11.104 1.173.453.03.568-.735.109-.803-3.891-.582-7.858-1.093-11.797-1.284-3.301-5.021-5.879-10.551-7.737-16.508 4.008.465 7.986 1.047 11.983 1.663.726.112 1.056-.921.311-1.13-4.139-1.158-8.472-1.784-12.778-2.074-.757-2.65-1.316-5.414-1.771-8.234 3.887.285 7.738.822 11.568 1.603.931.19 1.322-1.161.396-1.434-4.009-1.185-8.098-1.738-12.245-1.929-.219-1.601-.345-3.251-.468-4.901.082.135.21.248.425.285 2.7.463 5.399 1.006 8.123 1.305.752.083.906-1.148.178-1.315-2.609-.596-5.277-.953-7.916-1.389-.443-.073-.756.222-.863.559-.172-2.547-.26-5.138-.17-7.815.004-.133.023-.26.028-.393 2.038.226 4.097.427 6.088.273.447-.035.595-.703.111-.822-1.962-.483-4.042-.622-6.107-.733.141-2.265.445-4.457.836-6.607 1.941.066 3.881.131 5.823.048.347-.015.347-.524 0-.539-1.916-.082-3.831-.019-5.746.046.297-1.558.717-3.052 1.136-4.547 2.193.29 4.388.575 6.584.74.667.05.637-.944 0-1.023-2.112-.259-4.244-.409-6.376-.55.447-1.502.958-2.968 1.52-4.404 2.724.047 5.431.147 8.157.295.848.046 1.052-1.333.203-1.497-2.497-.484-5.072-.581-7.625-.469.555-1.287 1.217-2.505 1.859-3.735 1.853.032 3.583.513 5.259 1.411.667.358 1.223-.601.591-1.011-1.617-1.051-3.39-1.551-5.25-1.605 1.104-1.995 2.302-3.925 3.656-5.739 8.037 12.285-3.398 28.202 3.12 41.625 7.489 15.421 16.508 27.094 19.672 44.7.258 1.438 2.379.808 2.17-.598-1.104-7.392-2.815-14.376-5.713-21.292-3.268-7.801-10.075-14.326-13.021-21.986-5.409-14.061 4.706-31.85-5.275-43.623 9.486-12.006 23.804-19.982 39.48-22.667-.075.298-.081.623.066.963 5.231 12.119 3.008 25.396-9 32.073-4.984 2.771-9.688 4.422-13.242 9.075-.342.448.394.995.774.597 7.208-7.56 18.345-6.915 23.99-16.581 4.832-8.273 4.178-18.177-.046-26.508 6.013-.802 12.191-.85 18.353-.026 8.997 1.204 16.757 4.173 23.322 8.465-4.079.614-8.163 3.645-10.438 6.579-.532.687.359 1.663.986.986 1.793-1.933 3.93-3.429 6.424-4.32 2.019-.721 4.073-.684 6.118-1.069 7.335 5.598 12.976 12.982 16.939 21.471-9.627 1.022-44.335 2.917-32.967-13.224.536-.761-.638-1.623-1.27-.98-4.355 4.426-3.509 11.939 2.22 14.822 9.099 4.579 23.03 2.92 32.8 1.199 1.459 3.38 2.691 6.903 3.64 10.563-13.275-.6-28.621-12.6-41.554-4.411-7.521 4.763-6.066 15.14 1.339 19.441.632.367 1.288-.484.777-1.007-6.874-7.045-3.697-17.893 6.925-18.743 4.479-.359 8.803.818 13.031 2.099 6.692 2.028 12.854 4.283 19.9 4.359 1.513 6.435 2.302 13.19 2.277 20.092-.046 12.884-6.179 25.337-15.489 35.502-12.857-1.064-5.757-21.913-8.664-29.985-2.342-6.504-7.932-7.424-13.315-10.684-.825-.499-1.857.751-1.059 1.372 4.501 3.502 9.804 4.157 12.24 10.076 2.477 6.02.005 12.615.484 18.846.438 5.699 3.036 11.324 8.843 11.935-14.198 14.626-34.987 24.06-53.147 22.278-.403-.04-.7.081-.934.266-3.184-1.035-6.216-2.252-9.16-3.567-.134-.329-.524-.503-.854-.376-1.014-.464-1.959-1.01-2.944-1.513zm3.254 14.254c-1.707-.37-3.414-.764-5.12-1.206 1.257-1.744 2.47-3.535 3.513-5.414.475-.855 1.011-1.776 1.442-2.728 1.305.414 2.636.777 3.98 1.114-.417 1.047-.729 2.165-1.18 3.162-.72 1.589-1.583 3.094-2.54 4.551-.123.188-.118.359-.095.521zm95.494-57.562c-6.992 51.543-50.053 66.833-93.97 57.875 1.179-1.586 2.235-3.244 3.12-5.013.48-.96 1.011-2.002 1.327-3.072 1.095.227 2.184.468 3.316.616.176.556.626 1.036 1.353 1.108 31.669 3.107 71.682-26.396 73.129-59.473 1.327-30.315-11.978-59.396-39.796-69.515 1.081-1.72 2.156-3.442 3.174-5.202 1.017-1.759 2.207-3.555 2.971-5.463 33.889 14.971 50.671 49.108 45.376 88.139zm-47.025-88.789c-1.134 1.614-2.042 3.434-2.954 5.158-.997 1.885-1.932 3.798-2.854 5.719-1.594-.537-3.208-1.048-4.894-1.46 2.318-3.564 4.281-7.381 5.594-11.428 1.757.606 3.431 1.311 5.108 2.011zm5.043-10.821c-.111.08-.121.194-.187.292-2.06-.622-4.176-1.155-6.355-1.59.915-1.686 2.336-3.216 4.347-3.285 2.45-.083 4.642 2.828 2.195 4.583zm1.458 179.499c.064.108.112.218.214.32 3.448 3.432 2.51 8.456-1.35 10.833-.089-.012-.163-.044-.264-.038-12.047.694-24.093 1.221-36.161 1.301-7.83.051-35.51 2.461-43.103-3.881 6.14.372 12.293.529 18.442.618.782.011.773-1.166 0-1.209-6.383-.348-12.777-.636-19.171-.67-.132-.001-.208.067-.295.121-.098-.136-.247-.251-.329-.393.111-1.118.387-2.157.833-3.127 9.842.264 19.541.789 29.306 2.22 1.261.185 1.512-1.563.235-1.735-9.525-1.279-19.19-2.01-28.809-1.71.503-.712 1.099-1.39 1.924-1.989 2.566-1.864 5.579-2.311 8.532-3.097-.145 1.508.534 2.968 2.216 3.456 1.923.558 4.136-.769 4.234-2.776 20.963 4.067 42.345 1.137 63.546 1.756zm-65.341-3.367c-.347.547-.162 1.047.213 1.352-.438.596-.957 1.075-1.772 1.012-.935-.073-1.584-.945-1.593-1.909.326-.221.422-.695.171-.97 1.597-3.22 3.058-6.557 4.297-9.943 1.626.707 3.283 1.339 4.954 1.933-2.159 2.785-4.386 5.556-6.27 8.525z"/><path d="m47.715 117.839c-3.985-.66-8.006-1.01-12.023-1.426-.649-.067-.626.921 0 1.004 3.958.528 7.905 1.123 11.889 1.408.558.04.695-.893.134-.986z"/></g></svg>