<svg height="190.44933" viewBox="0 0 113.91655 190.44933" width="113.91653" xmlns="http://www.w3.org/2000/svg"><g transform="translate(-38.266584 -.00076)"><path d="m145.529 98.409c-4.795-6.01-15.353-4.808-22.368-3.486-1.029-8.889-2.61-16.657-4.439-22.258-.464-1.422-2.024-1.587-2.98-.965-.256-.163-.558-.28-.963-.268-23.906.722-46.41 2.393-70.28-.919-1.498-.208-2.129 1.628-.902 2.311-1.106 39.926-25.12 116.602 38.723 117.621 23.921.382 35.431-20.784 39.839-45.936 1.913 6.582 11.644 6.427 17.058 5.045 9.326-2.381 11.586-14.612 12.56-22.58 1.181-9.685-.014-20.753-6.248-28.565zm-67.621 88.172c-55.954-.896-30.515-79.368-31.762-112.96 14.573 4.252 30.833 4.467 46.604 3.396-1.782 2.915-1.461 8.734-1.538 11.189-.184 5.881.29 11.955 1.645 17.714-3.032.072-6.07.329-9.155.668-1.121.124-1.763.776-1.893 1.894-.771 6.64-1.708 13.244-1.822 19.939-.061 3.556-.018 7.242 2.348 9.279-.226.628-.101 1.367.618 1.722 3.215 1.585 6.553 2.284 10.104 2.619 2.637.249 6.348.61 8.058-1.802.282-.396.207-.969-.056-1.406.178-.316.287-.682.222-1.059.099.57.263-2.66.295-3.34.133-2.699.484-5.395.804-8.076.074-.632.169-1.262.249-1.895.112-.193.137-.424.086-.65.121-.939.249-1.877.374-2.815.274-.163.444-.49.234-.836-.03-.051-.072-.094-.104-.145.516-3.842 1.039-7.684 1.447-11.538.082-.776-.635-1.687-1.393-1.828-2.645-.493-5.26-.667-7.873-.712-.361-5.381-.503-10.782-.466-16.173.021-3.08.184-6.167.725-9.202.244-1.369.771-2.467.693-3.802 6.294-.504 12.488-1.17 18.424-1.86.231-.027.426-.103.61-.191 10.267 33.053 10.477 112.639-37.478 111.87zm22.032-70.688c-1.769-1.898-3.678-3.705-5.315-5.621-.34-.396-1.044.143-.726.559 1.834 2.396 3.719 4.957 5.758 7.296-.073.565-.141 1.133-.215 1.697-2.867-3.353-5.748-6.703-8.629-10.037 3.286-.174 6.562-.146 9.862.323-.222 1.931-.484 3.855-.735 5.783zm-13.375 18.861c-1.059-1.336-2.085-2.696-3.118-4.053.039-1.685.159-3.309.259-4.552 1.677 2.844 3.52 5.596 5.515 8.22.866 1.14 1.913 2.671 3.142 3.889-1.038-.085-2.077-.146-3.115-.321-.138-.186-.262-.354-.348-.446-.809-.883-1.592-1.797-2.335-2.737zm.627 2.72c-1.041-.237-2.098-.447-3.095-.762-.004-.001-.007 0-.01-.001-.462-1.008-.63-2.696-.655-4.515.972 1.322 1.95 2.64 2.901 3.975.244.343.54.812.859 1.303zm2.666-4.603c-2.185-2.685-4.172-5.55-6.019-8.48.097-1.605.278-3.202.445-4.802 3.141 4.902 6.662 9.6 10.299 14.14.133.166 1.685 2.021 3.175 3.337.093.406.216.786.392 1.115-1.014.047-2.034.142-3.057.192-2.035-1.414-3.753-3.683-5.235-5.502zm-5.493-14.145c.129-1.179.281-2.354.421-3.531 4.364 5.564 8.504 11.36 13.037 16.791-.128.913-.24 1.885-.257 2.836-.064-.069-.132-.135-.197-.205-1.611-1.741-3.127-3.573-4.631-5.408-2.755-3.362-5.464-6.794-7.987-10.336-.103-.142-.247-.165-.386-.147zm13.587 10.96c-4.169-5.061-7.991-10.442-12.492-15.192-.197-.208-.42-.169-.584-.042.171-1.415.332-2.831.506-4.245.17-.017.339-.028.51-.046 2.152 3.756 4.423 7.483 7.015 10.946 1.25 1.669 3.356 4.569 5.69 5.376-.102.817-.218 1.633-.312 2.451-.005.049-.02.126-.025.178-.202.111-.302.326-.308.574zm-4.545-10.15c-2.424-2.975-4.384-6.27-6.487-9.466.851-.079 1.698-.138 2.547-.197-.013.157.021.323.14.474 2.244 2.825 4.395 5.725 6.611 8.57.879 1.129 1.808 2.491 2.872 3.668-.082.63-.159 1.261-.24 1.891-1.904-1.532-3.785-2.906-5.443-4.94zm30.724-12.397c2.015-.155 3.653-1.33 5.786-1.254 2.09.074 3.924 1.556 5.318 2.96 3.63 3.655 5.287 9.191 6.105 14.136.715 4.32.664 9.944-2.164 13.56-3.886 4.97-11.445 1.375-15.88-.746 1.065-9.599 1.302-19.404.835-28.656zm22.619 26.832c-2.178 9.532-14.596 19.058-22.219 8.366-.547-.767-1.335-.824-1.931-.486.173-1.121.245-2.278.391-3.41 5.019 3.391 12.252 6.325 17.508 1.982 4.89-4.039 5.365-11.286 4.684-17.132-.744-6.374-3.172-12.997-7.762-17.609-3.023-3.039-9.848-5.251-13.547-2.139-.132-1.886-.221-3.822-.4-5.638 3.709.315 7.382-.053 11.14-.036 8.582.04 11.699 7.663 13.077 15.005 1.289 6.875.6 14.353-.941 21.097z"/><path d="m66.047 58.58c-19.101-.723-5.046-27.543-1.688-38.06 1.393-4.358 5.93-24.157-5.771-19.413-1.323.536-1.506 2.402 0 2.873 7.286 2.276 3.951 9.534 2.114 15.532-2.427 7.93-5.566 15.628-7.389 23.738-2.299 10.233.591 20.513 13.043 17.627 1.329-.308.976-2.249-.309-2.297z"/><path d="m84.41 58.542c-30.262-3.707 16.854-55.471-1.005-58.185-1.312-.199-2.849 1.492-1.493 2.565 11.074 8.763-33.092 59.738 2.498 58.034 1.591-.077 1.511-2.228 0-2.414z"/><path d="m107.583.558c-1.665-1.679-4.058.807-2.561 2.56 9.073 10.619-8.009 31.282-11.081 42.863-2.369 8.931 1.16 15.933 10.949 14.878 1.415-.152 1.442-2.101 0-2.22-16.328-1.351-3.019-23.413 1.125-31.052 4.331-7.982 8.948-19.587 1.568-27.029z"/></g></svg>