<?xml version="1.0" encoding="UTF-8" standalone="no"?>
<svg
   xmlns:dc="http://purl.org/dc/elements/1.1/"
   xmlns:cc="http://creativecommons.org/ns#"
   xmlns:rdf="http://www.w3.org/1999/02/22-rdf-syntax-ns#"
   xmlns:svg="http://www.w3.org/2000/svg"
   xmlns="http://www.w3.org/2000/svg"
   xmlns:sodipodi="http://sodipodi.sourceforge.net/DTD/sodipodi-0.dtd"
   xmlns:inkscape="http://www.inkscape.org/namespaces/inkscape"
   width="363"
   height="363"
   viewBox="0 0 363 363"
   version="1.1"
   id="svg3"
   sodipodi:docname="liniaprogressiva.svg"
   inkscape:version="0.92.2 5c3e80d, 2017-08-06">
  <metadata
     id="metadata9">
    <rdf:RDF>
      <cc:Work
         rdf:about="">
        <dc:format>image/svg+xml</dc:format>
        <dc:type
           rdf:resource="http://purl.org/dc/dcmitype/StillImage" />
      </cc:Work>
    </rdf:RDF>
  </metadata>
  <defs
     id="defs7" />
  <sodipodi:namedview
     pagecolor="#ffffff"
     bordercolor="#666666"
     borderopacity="1"
     objecttolerance="10"
     gridtolerance="10"
     guidetolerance="10"
     inkscape:pageopacity="0"
     inkscape:pageshadow="2"
     inkscape:window-width="740"
     inkscape:window-height="480"
     id="namedview5"
     showgrid="false"
     inkscape:zoom="0.65013774"
     inkscape:cx="181.5"
     inkscape:cy="181.5"
     inkscape:window-x="0"
     inkscape:window-y="0"
     inkscape:window-maximized="0"
     inkscape:current-layer="svg3" />
  <path
     d="m 82.056383,107.21001 c -1.148142,-1.57219 -0.308544,-3.01226 -1.366201,-4.14936 -2.309638,1.23453 0.292228,3.17908 -0.921185,4.59379 -2.015926,-1.39602 -2.1702,-3.38329 -2.088612,-5.37856 0.05043,-1.25722 0.348596,-2.5091 0.597805,-3.752975 0.634892,-3.175083 -1.001288,-6.196684 -0.03115,-9.575966 2.048561,-7.137598 5.104343,-13.830764 9.216299,-20.11153 4.273645,-6.533011 8.990825,-12.832462 13.648671,-19.158605 3.58535,-4.871398 7.91685,-9.162231 12.13264,-13.522465 4.06301,-4.198745 8.56806,-8.062497 13.19773,-11.79679 6.07596,-4.899424 12.52573,-9.275674 19.77803,-12.678979 8.08892,-3.797021 16.35437,-7.2416995 25.31107,-8.9927333 8.16754,-1.5975514 16.45821,-2.49842622 24.83788,-2.66792415 11.31974,-0.22955626 22.32797,1.79240725 33.40593,3.47670965 8.17643,1.2412053 16.31877,2.758679 23.92707,5.56407 10.74717,3.9651838 21.22879,8.5696558 30.14692,15.5284128 7.48668,5.843008 14.83538,11.768763 21.27478,18.618081 6.46313,6.877345 12.36405,14.109702 18.20417,21.396778 4.14161,5.16902 8.20907,10.475507 11.08981,16.235767 4.41605,8.831243 9.7429,17.266101 13.50923,26.398969 2.72647,6.60775 5.56567,13.12208 7.20779,20.03946 1.84088,7.76221 3.75297,15.48437 4.67861,23.41607 0.58001,4.96349 1.30389,9.89495 0.96272,14.87311 -0.43018,6.27009 -0.3664,12.57088 -0.61561,18.83029 -0.34266,8.50826 -1.37955,16.87639 -2.94156,25.19513 -0.4554,2.42369 -0.0772,4.88475 -1.00721,7.3071 -1.03541,2.69595 -1.30984,5.62546 -1.94028,8.44954 -0.63044,2.82941 -1.10809,5.69887 -1.97292,8.46956 -1.70737,5.46664 -3.57348,10.88123 -5.85642,16.2024 -1.87796,4.37892 -4.05855,8.61103 -6.162,12.88585 -4.39825,8.93267 -10.55134,16.88573 -16.60951,24.94022 -6.31924,8.39882 -13.91419,15.74195 -21.78803,22.85152 -11.16399,10.08179 -23.09341,19.36948 -36.51066,27.06628 -5.77631,3.31389 -11.65203,6.46895 -17.65235,9.39713 -4.11047,2.00461 -8.65853,3.31389 -13.08051,4.76463 -17.05157,5.58943 -34.51254,9.33706 -52.70483,10.58228 -16.60655,1.1371 -33.01136,0.29361 -49.3064,-2.401 -12.84467,-2.12473 -25.44309,-5.02488 -37.540139,-9.72678 C 79.111856,344.17079 64.730393,335.84137 52.088948,325.20304 43.784933,318.21492 36.525224,310.37264 30.1689,301.77095 23.882294,293.26536 18.734932,284.318 14.67638,274.86615 11.031691,266.37791 8.1999005,257.6441 6.0786541,248.70875 3.8654367,239.38637 3.0940742,229.95587 2.9739193,220.49602 2.9116218,215.323 3.721547,210.1126 4.5181274,204.96494 c 1.320217,-8.52428 3.1522033,-16.96848 7.0920856,-24.89751 4.623725,-9.30237 10.492015,-17.85467 17.938629,-25.61688 9.260802,-9.65337 20.27052,-17.32349 31.975946,-24.30894 12.218681,-7.28974 25.245808,-13.05401 39.263842,-16.99784 9.97727,-2.80806 20.23343,-3.5381 30.60233,-4.18006 17.14649,-1.05836 33.93995,0.46712 50.3581,4.71391 15.95237,4.12534 30.84264,10.50754 44.55658,18.98244 8.16902,5.04756 15.59339,10.90392 21.56255,18.0295 7.05945,8.42419 11.57044,17.85601 13.64569,28.36755 2.61968,13.28223 0.89301,26.23214 -2.26364,39.1647 -2.22063,9.0955 -5.37135,17.95878 -9.52337,26.47371 -2.62262,5.37589 -6.25545,10.298 -10.00101,15.14805 -6.08635,7.88232 -13.44691,14.61686 -21.91558,20.35176 -11.07203,7.49795 -23.63783,10.92394 -37.1871,7.81426 -12.15193,-2.78938 -21.67085,-9.37044 -28.02865,-19.51896 -6.61444,-10.55825 -9.60346,-21.85322 -9.39134,-33.8075 0.15279,-8.60702 2.71015,-16.49201 10.21314,-22.654 6.28215,-5.15834 17.7176,-6.36751 23.33816,0.46178 0.69126,0.84082 2.23695,0.9863 2.3571,2.32493 0.0964,1.08505 -0.22694,2.03931 -1.3217,2.54647 -1.68066,0.77809 -3.34652,0.65664 -4.69194,-0.61927 -2.17763,-2.06066 -4.8863,-2.35695 -7.47481,-1.25855 -3.79896,1.61357 -6.42308,4.48302 -8.4924,7.75419 -4.81508,7.6154 -4.11196,15.87275 -3.3673,24.09807 0.27592,3.05497 0.7595,6.14597 1.6525,9.09817 3.31092,10.93462 9.67911,19.79923 21.67083,24.54784 5.94692,2.35562 12.04365,1.54684 18.03357,0.19886 8.35149,-1.88049 15.34122,-5.85769 21.62041,-11.18419 11.1002,-9.41848 19.96198,-20.16892 25.79466,-32.88661 4.85958,-10.59829 8.01772,-21.5943 9.77108,-32.95467 1.67031,-10.8185 0.58297,-21.46084 -2.08712,-32.01642 -2.79323,-11.04006 -9.92091,-19.78455 -18.75153,-27.48002 -13.88749,-12.10242 -30.84265,-19.50428 -49.02306,-24.56252 -12.81203,-3.56346 -26.13139,-5.51869 -39.58277,-5.29047 -11.96354,0.20286 -23.97751,1.04768 -35.57317,3.98654 -8.139355,2.06333 -15.780298,5.34919 -23.286248,8.88196 -13.810357,6.50098 -26.505206,14.41399 -37.913955,23.94592 -7.160322,5.98181 -12.960375,12.96192 -18.199707,20.40381 -5.558261,7.89834 -9.299369,16.39592 -11.827065,25.37264 -3.659522,12.99529 -4.815083,26.14673 -3.383612,39.53973 1.726666,16.12232 6.387476,31.54397 13.583399,46.28495 8.783149,17.9908 21.225821,33.72875 38.473192,45.99667 18.11367,12.88584 38.796576,20.71612 61.535456,24.33163 11.92645,1.89517 23.87515,3.56613 35.99296,3.65154 10.86138,0.0747 21.65008,-0.99163 32.33641,-2.76802 12.40411,-2.062 24.61092,-4.79265 36.32376,-9.07948 9.41953,-3.44602 18.47266,-7.46859 26.94578,-12.63627 7.94355,-4.84471 15.66459,-9.90829 22.83826,-15.62318 15.75359,-12.54952 30.20032,-26.17475 41.40141,-42.31309 6.18869,-8.91532 11.53187,-18.24038 15.51921,-28.16735 4.07636,-10.14719 6.9927,-20.53461 9.11691,-31.15692 1.88539,-9.4305 3.52157,-18.93973 3.94583,-28.44096 0.42573,-9.50523 0.7224,-19.08386 -0.0964,-28.65182 -1.14963,-13.43171 -3.55864,-26.6352 -8.05332,-39.45965 C 338.02268,106.01285 331.386,93.903753 324.70629,81.81468 319.56783,72.514982 313.09135,63.993373 306.14018,55.826776 297.78276,46.003903 288.65696,36.59877 277.79409,28.963355 264.79961,19.830486 250.26238,13.157339 233.7834,10.541465 225.2643,9.1894859 216.74816,7.7387437 208.16675,6.8111762 196.60076,5.5606285 184.95764,6.2145969 173.83667,9.1334314 161.3762,12.401939 149.63814,17.449507 139.58817,25.086257 c -10.29917,7.827601 -19.28555,16.730914 -27.4249,26.449685 -7.53415,8.995403 -14.363673,18.347151 -20.206744,28.25544 -3.991802,6.763902 -8.35,13.462407 -9.647966,21.277998 -0.314479,1.90051 -0.201741,3.76499 -0.252177,6.14063"
     id="Fill-155"
     inkscape:connector-curvature="0"
     style="fill:#4d4d4d;stroke-width:1.04617202;stroke:none;stroke-opacity:1;fill-opacity:1" />
</svg>
